<svg id="account-edit-ico" xmlns="http://www.w3.org/2000/svg" width="20" height="20" viewBox="0 0 20 20">
  <rect id="Boundary" width="20" height="20" fill="#0089d1" opacity="0"/>
  <path id="Path_square-edit-outline" data-name="Path / square-edit-outline" d="M4.667,3A1.661,1.661,0,0,0,3,4.667V16.333A1.667,1.667,0,0,0,4.667,18H16.333A1.667,1.667,0,0,0,18,16.333V10.5H16.333v5.833H4.667V4.667H10.5V3H4.667m10.65.833a.576.576,0,0,0-.4.167L13.9,5.008l2.083,2.083L17,6.083a.563.563,0,0,0,0-.792L15.708,4a.557.557,0,0,0-.392-.167M13.308,5.6,7.167,11.75v2.083H9.25l6.142-6.15Z" transform="translate(-0.5 -0.5)" fill="#0089d1"/>
</svg>
