<svg xmlns="http://www.w3.org/2000/svg" width="27" height="27" viewBox="0 0 27 27">
  <g id="add-msg-ico" transform="translate(-885 -151)">
    <path id="_8725686_comment_alt_notes_icon" data-name="8725686_comment_alt_notes_icon" d="M7,7A1,1,0,1,0,8,8,1,1,0,0,0,7,7Zm0,4a1,1,0,1,0,1,1A1,1,0,0,0,7,11Zm10,0H11a1,1,0,0,0,0,2h6a1,1,0,0,0,0-2Zm0-4H11a1,1,0,0,0,0,2h6a1,1,0,0,0,0-2Zm2-5H5A3,3,0,0,0,2,5V15a3,3,0,0,0,3,3H16.59l3.7,3.71A1,1,0,0,0,21,22a.84.84,0,0,0,.38-.08A1,1,0,0,0,22,21V5A3,3,0,0,0,19,2Zm1,16.59-2.29-2.3A1,1,0,0,0,17,16H5a1,1,0,0,1-1-1V5A1,1,0,0,1,5,4H19a1,1,0,0,1,1,1Z" transform="translate(883 156)" fill="#20285b"/>
    <g id="Group_9218" data-name="Group 9218" transform="translate(-12 -7)">
      <g id="Rectangle_2319" data-name="Rectangle 2319" transform="translate(910 165)" fill="#20285b" stroke="#eefafc" stroke-width="2">
        <rect width="12" height="2" stroke="none"/>
        <rect x="-1" y="-1" width="14" height="4" fill="none"/>
      </g>
      <g id="Rectangle_2320" data-name="Rectangle 2320" transform="translate(917 160) rotate(90)" fill="#20285b" stroke="#eefafc" stroke-width="2">
        <rect width="12" height="2" stroke="none"/>
        <rect x="-1" y="-1" width="14" height="4" fill="none"/>
      </g>
      <rect id="Rectangle_2322" data-name="Rectangle 2322" width="12" height="2" transform="translate(910 165)" fill="#20285b"/>
    </g>
  </g>
</svg>
