<svg xmlns="http://www.w3.org/2000/svg" xmlns:xlink="http://www.w3.org/1999/xlink" width="96" height="96" viewBox="0 0 96 96">
  <defs>
    <clipPath id="clip-path">
      <rect id="Rectangle_2108" data-name="Rectangle 2108" width="54.983" height="70.632" fill="none"/>
    </clipPath>
  </defs>
  <g id="admin-approval" transform="translate(-848 -456)">
    <circle id="admin-approval-2" data-name="admin-approval" cx="48" cy="48" r="48" transform="translate(848 456)" fill="#edeff8"/>
    <g id="Group_8905" data-name="Group 8905" transform="translate(870 472.445)" opacity="0.5">
      <g id="Group_8904" data-name="Group 8904" clip-path="url(#clip-path)">
        <path id="Path_3614" data-name="Path 3614" d="M31.291,212.963a5.223,5.223,0,0,1-1.274-.752l-.2-.163a.508.508,0,0,0-.316-.111.5.5,0,0,0-.178.032l-.244.092a5.278,5.278,0,0,1-.531.169,5.2,5.2,0,0,1-.793.142q-.259.026-.522.026a5.251,5.251,0,0,1-2.459-.614,5.194,5.194,0,0,1-.707-.453,5.249,5.249,0,0,1-1.206-1.291l-.143-.218a.5.5,0,0,0-.422-.228h-.024l-.26.012c-.081,0-.164.006-.245.006s-.183,0-.275-.007a5.2,5.2,0,0,1-1.02-.156q-.2-.051-.4-.118a5.234,5.234,0,0,1-2.3-1.571l-.619,1.2-.66,1.276-.447.865-4.324,8.36L8.285,226.1l1.315-.332,1.655-.417,6.771-1.708.17.44,1.42,3.672,2.033,5.258.47-.908.784-1.516,2.713-5.245,4.323-8.359,1.973-3.814q-.169-.046-.335-.1-.145-.05-.285-.108" transform="translate(-6.559 -164.481)" fill="#4e89e6"/>
        <path id="Path_3615" data-name="Path 3615" d="M157.268,223.685l-.829-1.6-5.175-10.006-2.231-4.313q-.12.142-.25.275a5.229,5.229,0,0,1-3.742,1.577c-.082,0-.164,0-.245-.006l-.261-.012h-.024a.5.5,0,0,0-.422.227l-.143.218a5.231,5.231,0,0,1-6.218,2.021l-.244-.092a.5.5,0,0,0-.178-.032.507.507,0,0,0-.316.111l-.2.163a5.227,5.227,0,0,1-1.559.86c-.111.038-.222.072-.335.1l3.262,6.307,7,13.534.508-1.313,3.116-8.056.375.095,9.365,2.363Z" transform="translate(-106.791 -164.482)" fill="#4e89e6"/>
        <path id="Path_3616" data-name="Path 3616" d="M44.9,51.7a2.869,2.869,0,0,1,2.8-.444l.244.092a2.87,2.87,0,0,0,2.937-.556h0a2.866,2.866,0,0,0,.471-.55l.143-.218a2.86,2.86,0,0,1,.544-.613h0a2.867,2.867,0,0,1,1.852-.679q.067,0,.134,0l.26.012c.045,0,.09,0,.135,0A2.868,2.868,0,0,0,57.141,46.8q.026-.077.049-.156l.069-.251c.007-.028.016-.055.024-.082h0a2.868,2.868,0,0,1,1.984-1.926l.251-.069a2.869,2.869,0,0,0,2.107-2.9l-.012-.26a2.868,2.868,0,0,1,1.289-2.53l.218-.143a2.868,2.868,0,0,0,1.108-3.409l-.092-.244a2.868,2.868,0,0,1,.444-2.805l.163-.2a2.869,2.869,0,0,0,0-3.585l-.163-.2a2.868,2.868,0,0,1-.444-2.805l.092-.244A2.868,2.868,0,0,0,63.12,21.57l-.218-.143a2.869,2.869,0,0,1-1.25-1.907h0a2.864,2.864,0,0,1-.039-.624l.012-.26a2.868,2.868,0,0,0-2.107-2.9l-.251-.069c-.051-.014-.1-.029-.151-.046a2.867,2.867,0,0,1-1.857-1.962l-.069-.251c-.02-.071-.041-.14-.066-.208a2.869,2.869,0,0,0-2.7-1.9h-.043l-.092,0-.335.016q-.067,0-.134,0a2.867,2.867,0,0,1-2.332-1.2l-.31-.432a2.869,2.869,0,0,0-2.333-1.2q-.1,0-.2.007a2.866,2.866,0,0,0-.905.215,2.868,2.868,0,0,1-2.9-.408l-.152-.122q-.1-.077-.2-.145a2.869,2.869,0,0,0-3.387.145l-.009.007-.194.155a2.868,2.868,0,0,1-2.805.444L37.856,8.7a2.861,2.861,0,0,0-.745-.172q-.133-.012-.267-.012a2.868,2.868,0,0,0-2.4,1.293l-.143.218a2.868,2.868,0,0,1-2.4,1.292q-.067,0-.134,0l-.26-.012c-.045,0-.09,0-.135,0a2.868,2.868,0,0,0-2.765,2.11l-.069.251a2.868,2.868,0,0,1-2.008,2.008l-.251.069a2.869,2.869,0,0,0-2.107,2.9l.012.26A2.868,2.868,0,0,1,22.9,21.426l-.218.143a2.868,2.868,0,0,0-1.108,3.409l.092.244a2.868,2.868,0,0,1-.444,2.805l-.163.2a2.868,2.868,0,0,0,0,3.585l.163.2a2.868,2.868,0,0,1,.444,2.805l-.092.244a2.868,2.868,0,0,0,1.108,3.409l.218.143a2.868,2.868,0,0,1,1.289,2.53l-.012.26a2.867,2.867,0,0,0,2.107,2.9l.251.069a2.921,2.921,0,0,1,.342.117,2.868,2.868,0,0,1,1.666,1.891l.069.251c.015.053.031.1.048.156a2.868,2.868,0,0,0,2.717,1.954c.045,0,.09,0,.135,0l.26-.012q.067,0,.134,0a2.868,2.868,0,0,1,2.4,1.292l.143.218a2.866,2.866,0,0,0,3.409,1.108l.244-.092a2.859,2.859,0,0,1,.636-.16,2.87,2.87,0,0,1,2.169.6l.2.163a2.864,2.864,0,0,0,1.55.619q.121.01.243.01t.243-.01a2.861,2.861,0,0,0,1.55-.619Zm-2-6.583a15.1,15.1,0,1,1,0-30.19h.109a15.1,15.1,0,0,1-.109,30.19" transform="translate(-16.174 -5.98)" fill="#4e89e6"/>
        <path id="Path_3617" data-name="Path 3617" d="M95.054,74.087l-.759.759-5.574,5.574-3.743,3.743-3.97-3.97-.454.454-3.117,3.117.043.043,1.027,1.027,2.181,2.181.72.72,3.571,3.571.654-.654.2-.2,6.735-6.734,6.063-6.063-.924-.924Z" transform="translate(-61.304 -58.653)" fill="#4e89e6"/>
        <path id="Path_3618" data-name="Path 3618" d="M30.643,211.486c-.1-.012-.2-.026-.3-.044a4.5,4.5,0,0,1-1.443-.528l-.226-.13a1.226,1.226,0,0,0-.8-.148,1.213,1.213,0,0,0-.414.144l-.227.128a4.51,4.51,0,0,1-3.4.425q-.154-.042-.306-.095A4.525,4.525,0,0,1,21.669,210l-.175-.194a1.22,1.22,0,0,0-1.15-.379l-.1.021-.151.031c-.069.014-.139.026-.209.037a4.51,4.51,0,0,1-2.841-.495l-.116-.065a4.533,4.533,0,0,1-.69-.494l-.809-.7-3.931,11.7,4.324-8.36.316-.941.131.076.091.05a5.945,5.945,0,0,0,3.745.652c.091-.014.184-.03.275-.049l.137-.028.094.1a5.949,5.949,0,0,0,6.918,1.408q.214-.1.42-.216l.122-.069.121.07.13.073a5.292,5.292,0,0,0,.531-.169l.244-.092a.5.5,0,0,1,.178-.032.508.508,0,0,1,.316.111l.2.163a5.227,5.227,0,0,0,1.274.752l.463-1.377Zm-7.369,20.148-.6-1.042-3.933-6.834-.775.328L10.373,227.3l.653-1.945-1.655.417L8,229.863l10.134-4.288,1.256,2.183,2.5,4.35,1.729,3,6.091-18.124-4.323,8.359Z" transform="translate(-6.331 -164.481)" fill="#596b9b"/>
        <path id="Path_3619" data-name="Path 3619" d="M143.046,192.4l-.561-.913-.316.435h0l-.314.432a4.511,4.511,0,0,1-3.317,1.846c-.07.005-.141.009-.212.011l-.261.007-.057,0a1.219,1.219,0,0,0-.978.625l-.1.181h0l-.026.046a4.523,4.523,0,0,1-1.132,1.335h0a4.475,4.475,0,0,1-.831.525,4.507,4.507,0,0,1-3.258.272l-.25-.074a1.223,1.223,0,0,0-1.179.277l-.191.177a4.5,4.5,0,0,1-1.287.839c-.091.039-.185.076-.281.11l-.837.3,4.77,7.764-3.262-6.307q.168-.046.334-.1a5.22,5.22,0,0,0,.539-.221l-.263-.428a5.933,5.933,0,0,0,1.265-.9l.1-.095.134.04a5.949,5.949,0,0,0,6.883-2.811l.068-.122.139,0c.092,0,.186-.007.279-.014a5.943,5.943,0,0,0,3.5-1.477q.1-.085.188-.173l.719,1.171,2.481,4.039,6.264,10.2-1.089-.191.829,1.6,3.152.553Zm-3.114,26.416.714,1.162,2.777-9.123-.375-.095Z" transform="translate(-101.061 -151.595)" fill="#596b9b"/>
        <path id="Path_3620" data-name="Path 3620" d="M51.8,26.061a2.159,2.159,0,0,1,.178-2.122l.147-.215a3.585,3.585,0,0,0-.33-4.469l-.177-.191a2.16,2.16,0,0,1-.487-2.073l.074-.25a3.6,3.6,0,0,0,.055-1.82,3.568,3.568,0,0,0-.651-1.379,3.59,3.59,0,0,0-1.1-.95l-.227-.127a2.159,2.159,0,0,1-1.1-1.821l-.007-.26a3.589,3.589,0,0,0-2.894-3.422l-.256-.05a2.16,2.16,0,0,1-1.612-1.391l-.072-.2-.016-.045A3.557,3.557,0,0,0,41.9,3.468,3.6,3.6,0,0,0,39.685,2.9c-.055,0-.112.01-.168.016l-.2.025a2.864,2.864,0,0,1,.827.772l.309.432a2.893,2.893,0,0,0,.272.326,2.163,2.163,0,0,1,.861.61,2.135,2.135,0,0,1,.392.677L42.062,6A3.586,3.586,0,0,0,44.75,8.319l.255.05a2.139,2.139,0,0,1,1.736,2.052l.007.261a3.587,3.587,0,0,0,1.84,3.037l.228.127a2.138,2.138,0,0,1,1.016,2.488l-.074.25a3.585,3.585,0,0,0,.812,3.457l.177.191a2.139,2.139,0,0,1,.2,2.681l-.147.215a3.585,3.585,0,0,0-.3,3.538l.11.236a2.139,2.139,0,0,1-.64,2.611l-.206.159a3.586,3.586,0,0,0-1.375,3.273l.031.259A2.139,2.139,0,0,1,47,35.487l-.246.087a3.584,3.584,0,0,0-2.319,2.688l-.05.256c-.007.035-.016.072-.028.12a2.147,2.147,0,0,1-1.923,1.611l-.1.005-.261.007c-.056,0-.112,0-.167.008A3.587,3.587,0,0,0,39.04,42.1l-.127.228a2.15,2.15,0,0,1-2.488,1.016l-.25-.074a3.587,3.587,0,0,0-3.457.812l-.191.177a2.144,2.144,0,0,1-1.125.548c-.061.01-.122.017-.181.021s-.121.006-.182.006a2.142,2.142,0,0,1-1.193-.377l-.215-.147a3.586,3.586,0,0,0-3.538-.3l-.236.11a2.15,2.15,0,0,1-2.611-.64l-.159-.207a3.576,3.576,0,0,0-3.107-1.391c-.056,0-.112.01-.167.016l-.259.031a2.147,2.147,0,0,1-2.24-1.3c-.019-.045-.033-.081-.045-.115l-.087-.246A3.587,3.587,0,0,0,14.5,37.953l-.117-.023L14.24,37.9A2.138,2.138,0,0,1,12.5,35.85L12.5,35.59a3.586,3.586,0,0,0-1.84-3.037l-.228-.127a2.139,2.139,0,0,1-1.016-2.488l.074-.25a3.586,3.586,0,0,0-.811-3.457L8.5,26.041a2.139,2.139,0,0,1-.2-2.681l.147-.215a3.588,3.588,0,0,0,.3-3.538l-.11-.236a2.139,2.139,0,0,1,.64-2.611l.207-.159a3.586,3.586,0,0,0,1.375-3.274l-.031-.259a2.138,2.138,0,0,1,1.416-2.285l.246-.087a3.587,3.587,0,0,0,2.319-2.688l.05-.256a2.155,2.155,0,0,1,1.951-1.73l.1-.005.26-.007c.056,0,.112,0,.168-.009A3.586,3.586,0,0,0,20.205,4.17l.127-.227a2.149,2.149,0,0,1,2.488-1.016L23.07,3a3.57,3.57,0,0,0,.963.146q.158,0,.317-.009a3.6,3.6,0,0,0,1.723-.592,3.529,3.529,0,0,0,.454-.357l.191-.177a2.151,2.151,0,0,1,2.681-.2l.161.11a3.531,3.531,0,0,0,.5.287L30.07,2.2a2.869,2.869,0,0,1,3.387-.145,2.15,2.15,0,0,1,2.374.649l.181.217a2.86,2.86,0,0,0,.691-.191,2.864,2.864,0,0,1,.905-.215,2.117,2.117,0,0,1-.335-.322l-.341-.408A3.594,3.594,0,0,0,33.915.508h0A3.563,3.563,0,0,0,32.56.885a2.139,2.139,0,0,1-.813.226A2.158,2.158,0,0,1,30.371.74l-.16-.11a3.586,3.586,0,0,0-4.47.33l-.191.177a2.158,2.158,0,0,1-1.306.569,2.145,2.145,0,0,1-.767-.082l-.25-.074a3.571,3.571,0,0,0-1.279-.137h0a3.577,3.577,0,0,0-2.87,1.832l-.127.228a2.143,2.143,0,0,1-1.72,1.1l-.1.005-.261.007c-.056,0-.112,0-.168.008h0a3.6,3.6,0,0,0-2.111.89,3.558,3.558,0,0,0-1.143,1.995l-.05.256a2.16,2.16,0,0,1-1.391,1.612l-.246.087A3.586,3.586,0,0,0,9.4,13.241l.031.259a2.159,2.159,0,0,1-.825,1.963l-.207.159a3.586,3.586,0,0,0-1.068,4.353l.11.236a2.161,2.161,0,0,1-.178,2.122l-.147.215a3.586,3.586,0,0,0,.33,4.47l.177.191a2.16,2.16,0,0,1,.487,2.073l-.074.25A3.586,3.586,0,0,0,9.731,33.68l.228.127a2.16,2.16,0,0,1,1.1,1.821l.007.261a3.587,3.587,0,0,0,2.894,3.422l.256.05a2.159,2.159,0,0,1,1.612,1.391l.087.246c.021.059.045.12.074.19a3.581,3.581,0,0,0,3.568,2.187c.055,0,.112-.01.167-.016l.259-.031.1-.01a2.145,2.145,0,0,1,1.863.834l.159.207a3.583,3.583,0,0,0,4.119,1.166q.118-.045.234-.1l.236-.11a2.151,2.151,0,0,1,2.122.178l.215.147a3.573,3.573,0,0,0,1.617.606,3.618,3.618,0,0,0,.372.023c.1,0,.2,0,.3-.009s.2-.019.3-.035a3.575,3.575,0,0,0,1.876-.914l.191-.177A2.157,2.157,0,0,1,35,44.566a2.133,2.133,0,0,1,.767.082l.25.074a3.585,3.585,0,0,0,4.149-1.695l.127-.228a2.145,2.145,0,0,1,1.721-1.1l.1-.005.26-.007c.056,0,.113,0,.169-.009a3.58,3.58,0,0,0,3.208-2.686c.019-.074.034-.137.046-.2l.05-.256a2.16,2.16,0,0,1,1.391-1.612l.246-.087a3.586,3.586,0,0,0,2.36-3.81l-.031-.259a2.16,2.16,0,0,1,.825-1.963l.206-.159A3.586,3.586,0,0,0,51.913,26.3Z" transform="translate(-5.136 -0.001)" fill="#596b9b"/>
        <path id="Path_3621" data-name="Path 3621" d="M73.214,49.794a15.741,15.741,0,0,0-3.344-8.619A15.921,15.921,0,0,0,68.34,39.5q-.278-.264-.567-.514a15.839,15.839,0,0,0-5.262-3.01A15.794,15.794,0,0,0,47.662,38.53a15.856,15.856,0,0,0-5.2,7.359,15.792,15.792,0,0,0,2.557,14.849,15.858,15.858,0,0,0,7.359,5.2,15.665,15.665,0,0,0,4.9.83q.662.006,1.329-.043a15.745,15.745,0,0,0,8.619-3.344,15.858,15.858,0,0,0,5.2-7.359,15.716,15.716,0,0,0,.787-6.23M58.5,65.3A14.378,14.378,0,1,1,71.782,49.9,14.31,14.31,0,0,1,58.5,65.3" transform="translate(-32.957 -27.822)" fill="#596b9b"/>
        <path id="Path_3622" data-name="Path 3622" d="M88.422,64.721,79.979,76.2l-.6-.443-3.434-2.525-.487-.358-2.351,3.2-.236.321L71.613,78.1l9.749,7.17,6.591-8.963-6.735,6.735-.163.221-.034-.025L76.077,79.6,73.62,77.794l.275-.375,1.867-2.538,4.523,3.326,3.826-5.2,4.617-6.278.957.7.759-.759,2.647,2.647.556-.756Z" transform="translate(-56.694 -51.238)" fill="#596b9b"/>
        <path id="Path_3623" data-name="Path 3623" d="M174.685,46.073c.2.157.411.318.615.478q.029.022.059.042a.965.965,0,0,0,1.223-1.481h0a.959.959,0,0,0-.091-.081c-.209-.164-.421-.328-.629-.488a.965.965,0,0,0-1.177,1.53" transform="translate(-137.996 -35.106)" fill="#596b9b"/>
        <path id="Path_3624" data-name="Path 3624" d="M159.531,36.22l.028.019c.219.136.441.275.659.414a.965.965,0,0,0,1.163-1.532.947.947,0,0,0-.129-.1c-.226-.144-.453-.286-.675-.424a.965.965,0,0,0-1.048,1.621" transform="translate(-125.958 -27.276)" fill="#596b9b"/>
        <path id="Path_3625" data-name="Path 3625" d="M143.732,29.283a.979.979,0,0,0,.16.087c.221.094.455.2.712.308a.965.965,0,1,0,.776-1.767c-.266-.117-.506-.22-.733-.317a.965.965,0,0,0-.916,1.689" transform="translate(-113.451 -21.784)" fill="#596b9b"/>
        <path id="Path_3626" data-name="Path 3626" d="M127.311,24.421a.961.961,0,0,0,.255.121l.071.022c.224.069.447.14.663.211a.965.965,0,0,0,.847-1.713.957.957,0,0,0-.245-.121c-.229-.075-.464-.15-.7-.222l-.069-.021a.966.966,0,0,0-.824,1.723" transform="translate(-100.452 -17.935)" fill="#596b9b"/>
        <path id="Path_3627" data-name="Path 3627" d="M109.58,21.149a.959.959,0,0,0,.481.2c.219.026.467.059.757.1a.965.965,0,1,0,.276-1.911c-.306-.044-.57-.079-.8-.107a.965.965,0,0,0-.873,1.555.979.979,0,0,0,.163.163" transform="translate(-86.459 -15.378)" fill="#596b9b"/>
        <path id="Path_3628" data-name="Path 3628" d="M227.771,222.608a1,1,0,0,0-.324,1.381l0,0,.335.539a1.028,1.028,0,0,0,.111.147,1,1,0,0,0,1.6-1.206l0,0-.335-.539a1.006,1.006,0,0,0-1.383-.322" transform="translate(-179.945 -176.113)" fill="#596b9b"/>
        <path id="Path_3629" data-name="Path 3629" d="M219.26,208.9a1.006,1.006,0,0,0-.324,1.381l0,0,.335.539a1.022,1.022,0,0,0,.111.147,1,1,0,0,0,1.6-1.206l0,0-.335-.539a1,1,0,0,0-1.383-.322" transform="translate(-173.208 -165.261)" fill="#596b9b"/>
        <path id="Path_3630" data-name="Path 3630" d="M254.87,264.694l0,0-.335-.539a1,1,0,0,0-1.707,1.059l0,0,.335.539a1,1,0,0,0,1.707-1.059" transform="translate(-200.038 -208.748)" fill="#596b9b"/>
        <path id="Path_3631" data-name="Path 3631" d="M246.353,250.984l-.335-.539a1,1,0,0,0-1.707,1.059l0,0,.335.539a1.028,1.028,0,0,0,.111.147,1,1,0,0,0,1.6-1.206Z" transform="translate(-193.296 -197.895)" fill="#596b9b"/>
        <path id="Path_3632" data-name="Path 3632" d="M235.795,237.8l0,0,.335.539a1.041,1.041,0,0,0,.111.147,1,1,0,0,0,1.6-1.206l0,0-.335-.539a1,1,0,0,0-1.707,1.059" transform="translate(-186.555 -187.048)" fill="#596b9b"/>
        <path id="Path_3633" data-name="Path 3633" d="M227.686,186.848l.953-.954a.514.514,0,0,0-.727-.727l-.954.954a.514.514,0,1,0,.727.727" transform="translate(-179.558 -146.473)" fill="#596b9b"/>
        <path id="Path_3634" data-name="Path 3634" d="M247.094,167.439l.954-.954a.514.514,0,0,0-.727-.727l-.954.954a.514.514,0,1,0,.727.727" transform="translate(-194.923 -131.108)" fill="#596b9b"/>
        <path id="Path_3635" data-name="Path 3635" d="M247.321,186.848a.514.514,0,1,0,.727-.727l-.954-.954a.514.514,0,0,0-.727.727Z" transform="translate(-194.924 -146.473)" fill="#596b9b"/>
        <path id="Path_3636" data-name="Path 3636" d="M226.959,166.486l.954.954a.514.514,0,1,0,.727-.727l-.953-.954a.514.514,0,1,0-.727.727" transform="translate(-179.558 -131.108)" fill="#596b9b"/>
        <path id="Path_3637" data-name="Path 3637" d="M10.834,32.3l.674-.674a.363.363,0,0,0-.514-.514l-.674.674a.363.363,0,0,0,.514.514" transform="translate(-8.086 -24.55)" fill="#596b9b"/>
        <path id="Path_3638" data-name="Path 3638" d="M24.544,18.595l.674-.674a.363.363,0,0,0-.514-.514l-.674.674a.363.363,0,0,0,.514.514" transform="translate(-18.94 -13.697)" fill="#596b9b"/>
        <path id="Path_3639" data-name="Path 3639" d="M24.705,32.3a.363.363,0,1,0,.514-.514l-.674-.674a.363.363,0,0,0-.514.514Z" transform="translate(-18.941 -24.55)" fill="#596b9b"/>
        <path id="Path_3640" data-name="Path 3640" d="M11,18.595a.363.363,0,1,0,.514-.514l-.674-.674a.363.363,0,0,0-.514.514Z" transform="translate(-8.087 -13.697)" fill="#596b9b"/>
        <path id="Path_3641" data-name="Path 3641" d="M.78,183.671l-.674.674a.363.363,0,1,0,.514.514l.674-.674a.363.363,0,0,0-.514-.514" transform="translate(0 -145.323)" fill="#596b9b"/>
        <path id="Path_3642" data-name="Path 3642" d="M14.329,171.148l.674-.674a.363.363,0,1,0-.514-.514l-.674.674a.363.363,0,0,0,.514.514" transform="translate(-10.853 -134.469)" fill="#596b9b"/>
        <path id="Path_3643" data-name="Path 3643" d="M13.816,184.184l.674.674a.363.363,0,0,0,.514-.514l-.674-.674a.363.363,0,0,0-.514.514" transform="translate(-10.853 -145.323)" fill="#596b9b"/>
        <path id="Path_3644" data-name="Path 3644" d="M.62,169.961a.363.363,0,1,0-.514.514l.674.674a.363.363,0,0,0,.514-.514Z" transform="translate(0.001 -134.469)" fill="#596b9b"/>
        <path id="Path_3645" data-name="Path 3645" d="M201.372,24.212l.674-.674a.363.363,0,0,0-.514-.514l-.674.674a.363.363,0,0,0,.514.514" transform="translate(-158.93 -18.144)" fill="#596b9b"/>
        <path id="Path_3646" data-name="Path 3646" d="M215.082,10.5l.674-.674a.363.363,0,1,0-.514-.514l-.674.674a.363.363,0,0,0,.514.514" transform="translate(-169.784 -7.291)" fill="#596b9b"/>
        <path id="Path_3647" data-name="Path 3647" d="M215.242,24.212a.363.363,0,1,0,.514-.514l-.674-.674a.363.363,0,0,0-.514.514Z" transform="translate(-169.784 -18.144)" fill="#596b9b"/>
        <path id="Path_3648" data-name="Path 3648" d="M201.533,10.5a.363.363,0,1,0,.514-.514l-.674-.674a.363.363,0,0,0-.514.514Z" transform="translate(-158.931 -7.291)" fill="#596b9b"/>
        <path id="Path_3649" data-name="Path 3649" d="M106.282,315.737l-.674.674a.363.363,0,1,0,.514.514l.674-.673a.363.363,0,0,0-.514-.514" transform="translate(-83.523 -249.876)" fill="#596b9b"/>
        <path id="Path_3650" data-name="Path 3650" d="M119.992,302.027l-.674.674a.363.363,0,0,0,.514.514l.674-.673a.363.363,0,0,0-.514-.514" transform="translate(-94.377 -239.023)" fill="#596b9b"/>
        <path id="Path_3651" data-name="Path 3651" d="M119.831,315.737a.363.363,0,0,0-.514.514l.674.673a.363.363,0,1,0,.514-.514Z" transform="translate(-94.377 -249.876)" fill="#596b9b"/>
        <path id="Path_3652" data-name="Path 3652" d="M106.122,302.027a.363.363,0,0,0-.514.514l.674.673a.363.363,0,1,0,.514-.514Z" transform="translate(-83.523 -239.023)" fill="#596b9b"/>
      </g>
    </g>
  </g>
</svg>
