<svg xmlns="http://www.w3.org/2000/svg" xmlns:xlink="http://www.w3.org/1999/xlink" width="96" height="96" viewBox="0 0 96 96">
  <defs>
    <clipPath id="clip-path">
      <rect id="Rectangle_2108" data-name="Rectangle 2108" width="61.929" height="79.555" fill="none"/>
    </clipPath>
  </defs>
  <g id="admin-approval" transform="translate(-848 -456)">
    <circle id="Ellipse_181" data-name="Ellipse 181" cx="48" cy="48" r="48" transform="translate(848 456)" fill="#daedfb"/>
    <g id="Group_8905" data-name="Group 8905" transform="translate(872 472.445)">
      <g id="Group_8904" data-name="Group 8904" clip-path="url(#clip-path)">
        <path id="Path_3614" data-name="Path 3614" d="M34.2,213.62a5.883,5.883,0,0,1-1.435-.847l-.229-.184a.572.572,0,0,0-.356-.125.564.564,0,0,0-.2.037l-.275.1a5.944,5.944,0,0,1-.6.19,5.855,5.855,0,0,1-.893.16q-.292.029-.588.029a5.915,5.915,0,0,1-2.769-.691,5.849,5.849,0,0,1-.8-.51A5.912,5.912,0,0,1,24.7,210.33l-.161-.245a.567.567,0,0,0-.475-.256h-.027l-.293.014c-.092,0-.185.006-.276.006s-.206,0-.309-.008a5.859,5.859,0,0,1-1.149-.175q-.225-.058-.447-.133a5.9,5.9,0,0,1-2.592-1.769l-.7,1.348-.743,1.437-.5.974-4.87,9.416-3.869,7.482,1.481-.374,1.864-.47,7.626-1.924.191.5,1.6,4.136,2.29,5.922.529-1.023.883-1.707,3.055-5.908,4.869-9.415,2.222-4.3q-.19-.051-.377-.116-.163-.056-.321-.122" transform="translate(-6.341 -159.013)" fill="#4e89e6"/>
        <path id="Path_3615" data-name="Path 3615" d="M160.094,225.7l-.934-1.8-5.828-11.27-2.513-4.858q-.135.16-.282.309a5.889,5.889,0,0,1-4.214,1.776c-.092,0-.185,0-.276-.006l-.294-.014h-.027a.567.567,0,0,0-.475.256l-.161.245a5.891,5.891,0,0,1-7,2.276l-.275-.1a.564.564,0,0,0-.2-.037.571.571,0,0,0-.356.125l-.229.184a5.886,5.886,0,0,1-1.756.969c-.125.043-.25.081-.377.116l3.674,7.1,7.884,15.244.572-1.479,3.509-9.074.422.107,10.549,2.662Z" transform="translate(-103.241 -159.014)" fill="#4e89e6"/>
        <path id="Path_3616" data-name="Path 3616" d="M47.988,57.279a3.231,3.231,0,0,1,3.159-.5l.275.1a3.232,3.232,0,0,0,3.308-.627h0a3.228,3.228,0,0,0,.53-.62l.161-.245a3.222,3.222,0,0,1,.612-.691h0a3.229,3.229,0,0,1,2.086-.765q.075,0,.151,0l.293.014c.051,0,.1,0,.152,0a3.23,3.23,0,0,0,3.06-2.2q.03-.087.055-.176l.077-.283c.008-.031.018-.062.027-.093h0a3.231,3.231,0,0,1,2.235-2.169l.283-.077a3.231,3.231,0,0,0,2.373-3.267l-.014-.293a3.231,3.231,0,0,1,1.452-2.85l.245-.161a3.231,3.231,0,0,0,1.248-3.84l-.1-.275a3.231,3.231,0,0,1,.5-3.159l.183-.229a3.231,3.231,0,0,0,0-4.037l-.183-.229a3.231,3.231,0,0,1-.5-3.159l.1-.275a3.231,3.231,0,0,0-1.248-3.84l-.245-.161a3.231,3.231,0,0,1-1.408-2.147h0a3.226,3.226,0,0,1-.044-.7l.014-.293a3.231,3.231,0,0,0-2.373-3.267l-.283-.077c-.057-.016-.114-.033-.17-.052a3.23,3.23,0,0,1-2.092-2.21l-.077-.283c-.022-.08-.046-.158-.074-.234a3.231,3.231,0,0,0-3.041-2.143H58.67l-.1,0-.378.018q-.076,0-.151,0a3.229,3.229,0,0,1-2.626-1.349l-.349-.487a3.232,3.232,0,0,0-2.628-1.35q-.112,0-.224.008a3.228,3.228,0,0,0-1.02.242A3.23,3.23,0,0,1,47.93,8.4l-.171-.137q-.109-.087-.223-.163a3.231,3.231,0,0,0-3.815.163l-.011.008-.218.175a3.23,3.23,0,0,1-3.159.5l-.275-.1a3.223,3.223,0,0,0-.84-.194q-.15-.014-.3-.014a3.231,3.231,0,0,0-2.7,1.456l-.161.245a3.231,3.231,0,0,1-2.7,1.456q-.076,0-.151,0l-.293-.014c-.051,0-.1,0-.152,0a3.23,3.23,0,0,0-3.114,2.377l-.078.283a3.23,3.23,0,0,1-2.262,2.262l-.283.077a3.231,3.231,0,0,0-2.373,3.267l.014.293a3.23,3.23,0,0,1-1.452,2.85l-.245.161a3.23,3.23,0,0,0-1.248,3.84l.1.275a3.231,3.231,0,0,1-.5,3.159l-.183.229a3.23,3.23,0,0,0,0,4.037l.183.229a3.231,3.231,0,0,1,.5,3.159l-.1.275a3.23,3.23,0,0,0,1.248,3.84l.245.161a3.23,3.23,0,0,1,1.452,2.85l-.014.293a3.229,3.229,0,0,0,2.373,3.267l.283.077a3.29,3.29,0,0,1,.385.132,3.23,3.23,0,0,1,1.877,2.13l.078.283c.016.06.035.118.054.176a3.23,3.23,0,0,0,3.06,2.2c.051,0,.1,0,.152,0l.293-.014q.076,0,.151,0a3.231,3.231,0,0,1,2.7,1.456l.161.245a3.229,3.229,0,0,0,3.84,1.248l.275-.1a3.22,3.22,0,0,1,.716-.18,3.232,3.232,0,0,1,2.443.68l.229.183a3.226,3.226,0,0,0,1.746.7q.137.012.273.012t.273-.012a3.223,3.223,0,0,0,1.746-.7ZM45.74,49.864a17,17,0,1,1,0-34h.123a17,17,0,0,1-.123,34" transform="translate(-15.637 -5.781)" fill="#4e89e6"/>
        <path id="Path_3617" data-name="Path 3617" d="M97.28,74.087l-.855.855-6.278,6.278L85.93,85.437l-4.472-4.472-.512.512-3.511,3.511.048.048,1.156,1.156L81.1,88.649l.811.811,4.022,4.022.737-.737.221-.221,7.585-7.585L101.3,78.11l-1.041-1.041Z" transform="translate(-59.266 -56.703)" fill="#4e89e6"/>
        <path id="Path_3618" data-name="Path 3618" d="M33.5,211.957c-.115-.013-.228-.03-.337-.05a5.064,5.064,0,0,1-1.625-.6l-.255-.146a1.381,1.381,0,0,0-.9-.167,1.367,1.367,0,0,0-.466.162l-.256.144a5.08,5.08,0,0,1-3.832.479q-.174-.047-.344-.107a5.1,5.1,0,0,1-2.1-1.391l-.2-.218a1.375,1.375,0,0,0-1.3-.426l-.118.024-.17.034c-.078.016-.157.03-.235.042a5.079,5.079,0,0,1-3.2-.557q-.066-.036-.13-.073a5.106,5.106,0,0,1-.778-.556l-.912-.792-4.428,13.176,4.87-9.416.356-1.06c.049.029.1.058.148.086l.1.057a6.7,6.7,0,0,0,4.218.734c.1-.016.207-.034.309-.055l.154-.031.105.117a6.7,6.7,0,0,0,7.792,1.586q.241-.112.473-.243l.137-.077.136.078c.049.028.1.055.147.082a5.959,5.959,0,0,0,.6-.19l.275-.1a.565.565,0,0,1,.2-.037.572.572,0,0,1,.356.125l.229.184a5.888,5.888,0,0,0,1.435.847l.521-1.551ZM25.2,234.65l-.676-1.174-4.429-7.7-.872.369-8.554,3.619.736-2.19-1.864.47L8,232.654l11.414-4.829,1.415,2.459,2.819,4.9,1.948,3.384,6.86-20.414-4.869,9.415Z" transform="translate(-6.121 -159.013)" fill="#596b9b"/>
        <path id="Path_3619" data-name="Path 3619" d="M144.991,192.516l-.632-1.029-.356.49h0l-.354.486a5.081,5.081,0,0,1-3.736,2.08c-.079.006-.159.01-.238.012l-.294.008-.064,0a1.373,1.373,0,0,0-1.1.7l-.114.2h0l-.029.052a5.094,5.094,0,0,1-1.275,1.5h0a5.041,5.041,0,0,1-.936.591,5.076,5.076,0,0,1-3.67.307l-.281-.083a1.378,1.378,0,0,0-1.328.312l-.215.2a5.07,5.07,0,0,1-1.45.945c-.1.044-.209.086-.317.124l-.943.333,5.372,8.745-3.674-7.1q.19-.052.376-.116a5.881,5.881,0,0,0,.607-.248l-.3-.482a6.683,6.683,0,0,0,1.424-1.013l.115-.107.151.045a6.7,6.7,0,0,0,7.753-3.166l.076-.138.157,0c.1,0,.21-.008.314-.016a6.694,6.694,0,0,0,3.946-1.664q.108-.1.211-.2l.81,1.319,2.794,4.549,7.055,11.485-1.227-.215.933,1.8,3.55.622Zm-3.507,29.754.8,1.309,3.128-10.276-.422-.107Z" transform="translate(-97.702 -146.556)" fill="#596b9b"/>
        <path id="Path_3620" data-name="Path 3620" d="M57.528,29.353a2.432,2.432,0,0,1,.2-2.39l.166-.242a4.038,4.038,0,0,0-.371-5.034l-.2-.215a2.432,2.432,0,0,1-.548-2.335l.083-.282a4.056,4.056,0,0,0,.062-2.05,4.019,4.019,0,0,0-.733-1.553,4.044,4.044,0,0,0-1.238-1.07l-.256-.143a2.432,2.432,0,0,1-1.243-2.051l-.008-.293A4.043,4.043,0,0,0,50.183,7.84l-.288-.057a2.432,2.432,0,0,1-1.816-1.567L48,5.99l-.018-.05a4.006,4.006,0,0,0-1.6-2.034,4.06,4.06,0,0,0-2.5-.643c-.062,0-.126.011-.189.018l-.229.028a3.226,3.226,0,0,1,.932.869l.348.487a3.259,3.259,0,0,0,.306.367,2.436,2.436,0,0,1,.969.687,2.4,2.4,0,0,1,.441.762l.1.277a4.039,4.039,0,0,0,3.028,2.612l.288.057a2.409,2.409,0,0,1,1.955,2.312l.008.294a4.04,4.04,0,0,0,2.073,3.42l.257.143a2.409,2.409,0,0,1,1.145,2.8l-.083.282a4.038,4.038,0,0,0,.914,3.893l.2.215a2.409,2.409,0,0,1,.222,3.019l-.166.242a4.038,4.038,0,0,0-.334,3.985l.123.266a2.409,2.409,0,0,1-.721,2.94l-.233.179a4.039,4.039,0,0,0-1.549,3.687l.035.292a2.409,2.409,0,0,1-1.594,2.573l-.277.1A4.037,4.037,0,0,0,49.234,43.1l-.057.288c-.008.039-.018.082-.031.135a2.418,2.418,0,0,1-2.166,1.814l-.114.006-.294.008c-.063,0-.126,0-.189.009a4.04,4.04,0,0,0-3.231,2.063l-.143.257a2.421,2.421,0,0,1-2.8,1.145l-.281-.083a4.041,4.041,0,0,0-3.893.914l-.215.2a2.414,2.414,0,0,1-1.267.617c-.068.011-.137.019-.2.024s-.136.007-.205.006a2.413,2.413,0,0,1-1.344-.425l-.242-.166a4.039,4.039,0,0,0-3.985-.333L28.3,49.7a2.421,2.421,0,0,1-2.94-.721l-.179-.233a4.028,4.028,0,0,0-3.5-1.567c-.063,0-.126.011-.188.018l-.291.035a2.419,2.419,0,0,1-2.523-1.466c-.021-.051-.037-.092-.051-.129l-.1-.277a4.04,4.04,0,0,0-3.028-2.612l-.132-.026-.156-.031a2.409,2.409,0,0,1-1.955-2.312l-.008-.294a4.04,4.04,0,0,0-2.072-3.42l-.257-.143a2.409,2.409,0,0,1-1.145-2.8l.083-.282a4.039,4.039,0,0,0-.914-3.893l-.2-.215a2.409,2.409,0,0,1-.223-3.019l.166-.242a4.042,4.042,0,0,0,.334-3.985l-.124-.266a2.409,2.409,0,0,1,.721-2.94l.233-.179a4.039,4.039,0,0,0,1.549-3.687l-.035-.291a2.409,2.409,0,0,1,1.595-2.573l.277-.1A4.04,4.04,0,0,0,15.856,9.02l.057-.288a2.427,2.427,0,0,1,2.2-1.949l.114-.006.293-.008c.063,0,.126,0,.189-.01A4.039,4.039,0,0,0,21.938,4.7l.143-.256a2.421,2.421,0,0,1,2.8-1.145l.281.083a4.021,4.021,0,0,0,1.084.165q.178,0,.357-.01a4.057,4.057,0,0,0,1.941-.666,3.975,3.975,0,0,0,.512-.4l.215-.2a2.422,2.422,0,0,1,3.019-.223l.181.124a3.977,3.977,0,0,0,.565.324l.011-.008a3.231,3.231,0,0,1,3.815-.163,2.422,2.422,0,0,1,2.674.73l.2.244a3.222,3.222,0,0,0,.779-.215,3.226,3.226,0,0,1,1.02-.242,2.384,2.384,0,0,1-.377-.363l-.384-.46A4.049,4.049,0,0,0,37.38.572h0A4.013,4.013,0,0,0,35.853,1a2.409,2.409,0,0,1-.916.255A2.431,2.431,0,0,1,33.388.833L33.208.709a4.039,4.039,0,0,0-5.034.371l-.215.2a2.43,2.43,0,0,1-1.471.641,2.416,2.416,0,0,1-.864-.092l-.282-.083a4.022,4.022,0,0,0-1.44-.155h0a4.028,4.028,0,0,0-3.232,2.063l-.143.256a2.414,2.414,0,0,1-1.937,1.237l-.113.006-.294.008c-.063,0-.126,0-.189.009h0a4.06,4.06,0,0,0-2.378,1A4.007,4.007,0,0,0,14.327,8.42l-.057.288A2.433,2.433,0,0,1,12.7,10.525l-.277.1a4.039,4.039,0,0,0-2.659,4.291l.035.291a2.432,2.432,0,0,1-.929,2.211l-.233.179a4.039,4.039,0,0,0-1.2,4.9l.124.266a2.434,2.434,0,0,1-.2,2.39L7.2,25.4a4.039,4.039,0,0,0,.371,5.034l.2.215a2.433,2.433,0,0,1,.549,2.335l-.083.281a4.039,4.039,0,0,0,1.909,4.673l.256.143a2.433,2.433,0,0,1,1.243,2.051l.008.294a4.04,4.04,0,0,0,3.259,3.855l.288.057A2.432,2.432,0,0,1,17.012,45.9l.1.277c.023.067.05.135.084.214a4.033,4.033,0,0,0,4.018,2.463c.062,0,.126-.011.189-.018l.292-.035c.037,0,.075-.008.113-.011a2.415,2.415,0,0,1,2.1.94l.179.233a4.036,4.036,0,0,0,4.64,1.314q.133-.05.263-.111l.266-.124a2.423,2.423,0,0,1,2.39.2l.242.166a4.024,4.024,0,0,0,1.822.682,4.075,4.075,0,0,0,.419.026c.115,0,.229,0,.342-.01s.226-.022.34-.04a4.027,4.027,0,0,0,2.112-1.029l.215-.2A2.429,2.429,0,0,1,38.6,50.2a2.4,2.4,0,0,1,.864.093l.282.083a4.038,4.038,0,0,0,4.673-1.909l.143-.256A2.416,2.416,0,0,1,46.5,46.969l.113-.006.293-.008c.063,0,.127,0,.19-.01a4.032,4.032,0,0,0,3.614-3.025c.022-.084.038-.155.051-.224l.057-.288a2.433,2.433,0,0,1,1.567-1.816l.277-.1A4.039,4.039,0,0,0,55.322,37.2l-.035-.291a2.433,2.433,0,0,1,.929-2.211l.233-.179a4.039,4.039,0,0,0,1.2-4.9Z" transform="translate(-4.965 -0.001)" fill="#596b9b"/>
        <path id="Path_3621" data-name="Path 3621" d="M77.2,51.645a17.729,17.729,0,0,0-3.766-9.708,17.932,17.932,0,0,0-1.723-1.889q-.313-.3-.639-.579a17.84,17.84,0,0,0-5.926-3.39,17.789,17.789,0,0,0-16.725,2.88,17.859,17.859,0,0,0-5.858,8.289,17.787,17.787,0,0,0,2.88,16.725,17.861,17.861,0,0,0,8.289,5.859,17.645,17.645,0,0,0,5.52.935q.745.007,1.5-.049a17.734,17.734,0,0,0,9.708-3.766,17.861,17.861,0,0,0,5.858-8.288,17.7,17.7,0,0,0,.886-7.017M60.632,69.1A16.195,16.195,0,1,1,75.591,51.764,16.118,16.118,0,0,1,60.632,69.1" transform="translate(-31.862 -26.897)" fill="#596b9b"/>
        <path id="Path_3622" data-name="Path 3622" d="M90.546,64.721l-9.509,12.93-.678-.5L76.49,74.308l-.549-.4-2.648,3.6-.266.362-1.414,1.923,10.98,8.075L90.017,77.77l-7.585,7.585-.183.249-.038-.028-5.57-4.1-2.767-2.035.31-.422,2.1-2.858,5.095,3.747,4.309-5.859,5.2-7.071,1.078.793.855-.855L95.8,69.9l.626-.851Z" transform="translate(-54.81 -49.534)" fill="#596b9b"/>
        <path id="Path_3623" data-name="Path 3623" d="M174.733,46.292c.23.177.463.358.692.538q.032.025.066.048a1.087,1.087,0,0,0,1.378-1.668h0a1.078,1.078,0,0,0-.1-.091c-.236-.184-.474-.37-.708-.55a1.087,1.087,0,0,0-1.326,1.723" transform="translate(-133.408 -33.939)" fill="#596b9b"/>
        <path id="Path_3624" data-name="Path 3624" d="M159.585,36.443l.032.021c.246.153.5.31.742.466a1.087,1.087,0,0,0,1.31-1.725,1.067,1.067,0,0,0-.145-.11c-.254-.162-.51-.322-.76-.478a1.087,1.087,0,0,0-1.18,1.826" transform="translate(-121.771 -26.369)" fill="#596b9b"/>
        <path id="Path_3625" data-name="Path 3625" d="M143.786,29.506a1.1,1.1,0,0,0,.181.1c.249.106.512.22.8.347a1.087,1.087,0,1,0,.874-1.991c-.3-.131-.569-.248-.825-.357a1.087,1.087,0,0,0-1.032,1.9" transform="translate(-109.68 -21.06)" fill="#596b9b"/>
        <path id="Path_3626" data-name="Path 3626" d="M127.365,24.645a1.082,1.082,0,0,0,.287.137l.08.025c.252.078.5.157.747.237a1.087,1.087,0,0,0,.954-1.93,1.077,1.077,0,0,0-.276-.136c-.258-.085-.523-.169-.786-.25l-.078-.024a1.087,1.087,0,0,0-.928,1.941" transform="translate(-97.112 -17.339)" fill="#596b9b"/>
        <path id="Path_3627" data-name="Path 3627" d="M109.626,21.367a1.08,1.08,0,0,0,.542.224c.247.029.526.067.853.114a1.087,1.087,0,1,0,.311-2.152c-.345-.05-.642-.089-.906-.121a1.087,1.087,0,0,0-.983,1.752,1.1,1.1,0,0,0,.183.183" transform="translate(-83.585 -14.866)" fill="#596b9b"/>
        <path id="Path_3628" data-name="Path 3628" d="M227.831,222.627a1.131,1.131,0,0,0-.365,1.555l0,0,.378.607a1.159,1.159,0,0,0,.126.166,1.131,1.131,0,0,0,1.8-1.358l0,0-.378-.607a1.133,1.133,0,0,0-1.558-.363" transform="translate(-173.964 -170.259)" fill="#596b9b"/>
        <path id="Path_3629" data-name="Path 3629" d="M219.319,208.92a1.133,1.133,0,0,0-.365,1.555l0,0,.378.607a1.153,1.153,0,0,0,.126.166,1.131,1.131,0,0,0,1.8-1.358l0,0-.378-.607a1.131,1.131,0,0,0-1.558-.363" transform="translate(-167.45 -159.767)" fill="#596b9b"/>
        <path id="Path_3630" data-name="Path 3630" d="M255.147,264.823l0,0-.378-.607a1.131,1.131,0,0,0-1.923,1.192l0,0,.378.607a1.131,1.131,0,0,0,1.923-1.192" transform="translate(-193.388 -201.809)" fill="#596b9b"/>
        <path id="Path_3631" data-name="Path 3631" d="M246.63,251.112l-.378-.607a1.131,1.131,0,0,0-1.923,1.192l0,0,.378.607a1.158,1.158,0,0,0,.126.166,1.131,1.131,0,0,0,1.8-1.358Z" transform="translate(-186.871 -191.317)" fill="#596b9b"/>
        <path id="Path_3632" data-name="Path 3632" d="M235.814,237.994l0,0,.378.607a1.172,1.172,0,0,0,.126.166,1.131,1.131,0,0,0,1.8-1.358l0,0-.378-.607a1.131,1.131,0,0,0-1.923,1.192" transform="translate(-180.353 -180.83)" fill="#596b9b"/>
        <path id="Path_3633" data-name="Path 3633" d="M227.8,187.08l1.074-1.074a.579.579,0,0,0-.819-.819l-1.074,1.074a.579.579,0,0,0,.819.819" transform="translate(-173.589 -141.604)" fill="#596b9b"/>
        <path id="Path_3634" data-name="Path 3634" d="M247.2,167.671l1.074-1.074a.579.579,0,1,0-.819-.819l-1.074,1.074a.579.579,0,0,0,.819.819" transform="translate(-188.443 -126.749)" fill="#596b9b"/>
        <path id="Path_3635" data-name="Path 3635" d="M247.461,187.08a.579.579,0,1,0,.819-.819l-1.074-1.074a.579.579,0,0,0-.819.819Z" transform="translate(-188.444 -141.604)" fill="#596b9b"/>
        <path id="Path_3636" data-name="Path 3636" d="M226.978,166.6l1.074,1.074a.579.579,0,0,0,.819-.819l-1.074-1.074a.579.579,0,1,0-.819.819" transform="translate(-173.589 -126.749)" fill="#596b9b"/>
        <path id="Path_3637" data-name="Path 3637" d="M10.913,32.467l.759-.759a.409.409,0,1,0-.578-.579l-.759.759a.409.409,0,0,0,.579.579" transform="translate(-7.818 -23.734)" fill="#596b9b"/>
        <path id="Path_3638" data-name="Path 3638" d="M24.623,18.758,25.381,18a.409.409,0,0,0-.578-.579l-.759.759a.409.409,0,0,0,.579.579" transform="translate(-18.311 -13.242)" fill="#596b9b"/>
        <path id="Path_3639" data-name="Path 3639" d="M24.8,32.467a.409.409,0,0,0,.579-.579l-.759-.759a.409.409,0,0,0-.578.579Z" transform="translate(-18.311 -23.734)" fill="#596b9b"/>
        <path id="Path_3640" data-name="Path 3640" d="M11.094,18.758a.409.409,0,1,0,.579-.579l-.759-.759a.409.409,0,0,0-.578.579Z" transform="translate(-7.818 -13.242)" fill="#596b9b"/>
        <path id="Path_3641" data-name="Path 3641" d="M.879,183.684l-.759.759a.409.409,0,0,0,.578.579l.759-.759a.409.409,0,1,0-.579-.579" transform="translate(0 -140.492)" fill="#596b9b"/>
        <path id="Path_3642" data-name="Path 3642" d="M14.408,171.311l.759-.759a.409.409,0,1,0-.578-.579l-.759.759a.409.409,0,1,0,.579.579" transform="translate(-10.492 -129.999)" fill="#596b9b"/>
        <path id="Path_3643" data-name="Path 3643" d="M13.829,184.263l.759.759a.409.409,0,1,0,.579-.578l-.759-.759a.409.409,0,1,0-.579.579" transform="translate(-10.492 -140.492)" fill="#596b9b"/>
        <path id="Path_3644" data-name="Path 3644" d="M.7,169.974a.409.409,0,1,0-.579.579l.759.759a.409.409,0,1,0,.578-.579Z" transform="translate(0.001 -129.999)" fill="#596b9b"/>
        <path id="Path_3645" data-name="Path 3645" d="M201.451,24.375l.759-.759a.409.409,0,1,0-.578-.579l-.759.759a.409.409,0,1,0,.579.579" transform="translate(-153.647 -17.541)" fill="#596b9b"/>
        <path id="Path_3646" data-name="Path 3646" d="M215.161,10.666l.759-.759a.409.409,0,0,0-.578-.579l-.759.759a.409.409,0,0,0,.579.579" transform="translate(-164.14 -7.048)" fill="#596b9b"/>
        <path id="Path_3647" data-name="Path 3647" d="M215.341,24.375a.409.409,0,0,0,.579-.579l-.759-.759a.409.409,0,0,0-.578.579Z" transform="translate(-164.14 -17.541)" fill="#596b9b"/>
        <path id="Path_3648" data-name="Path 3648" d="M201.632,10.666a.409.409,0,0,0,.578-.579l-.759-.759a.409.409,0,0,0-.578.579Z" transform="translate(-153.648 -7.048)" fill="#596b9b"/>
        <path id="Path_3649" data-name="Path 3649" d="M106.381,315.75l-.759.759a.409.409,0,0,0,.578.579l.759-.759a.409.409,0,0,0-.579-.579" transform="translate(-80.747 -241.57)" fill="#596b9b"/>
        <path id="Path_3650" data-name="Path 3650" d="M120.091,302.04l-.759.759a.409.409,0,1,0,.578.579l.759-.759a.409.409,0,0,0-.579-.579" transform="translate(-91.24 -231.077)" fill="#596b9b"/>
        <path id="Path_3651" data-name="Path 3651" d="M119.91,315.75a.409.409,0,0,0-.579.579l.759.759a.409.409,0,0,0,.578-.579Z" transform="translate(-91.239 -241.57)" fill="#596b9b"/>
        <path id="Path_3652" data-name="Path 3652" d="M106.2,302.04a.409.409,0,0,0-.579.579l.759.759a.409.409,0,1,0,.578-.579Z" transform="translate(-80.747 -231.077)" fill="#596b9b"/>
      </g>
    </g>
  </g>
</svg>
