<svg xmlns="http://www.w3.org/2000/svg" xmlns:xlink="http://www.w3.org/1999/xlink" width="109" height="96" viewBox="0 0 109 96">
  <defs>
    <clipPath id="clip-path">
      <rect id="Rectangle_2107" data-name="Rectangle 2107" width="99.152" height="79.077" fill="none"/>
    </clipPath>
    <clipPath id="clip-path-3">
      <rect id="Rectangle_2093" data-name="Rectangle 2093" width="0.61" height="25.97" fill="none"/>
    </clipPath>
    <clipPath id="clip-path-4">
      <rect id="Rectangle_2094" data-name="Rectangle 2094" width="6.674" height="7.816" fill="none"/>
    </clipPath>
    <clipPath id="clip-path-5">
      <rect id="Rectangle_2095" data-name="Rectangle 2095" width="2.566" height="5.468" fill="none"/>
    </clipPath>
    <clipPath id="clip-path-6">
      <rect id="Rectangle_2096" data-name="Rectangle 2096" width="5.263" height="30.217" fill="none"/>
    </clipPath>
    <clipPath id="clip-path-7">
      <rect id="Rectangle_2097" data-name="Rectangle 2097" width="7.811" height="31.24" fill="none"/>
    </clipPath>
    <clipPath id="clip-path-8">
      <rect id="Rectangle_2098" data-name="Rectangle 2098" width="2.21" height="17.804" fill="none"/>
    </clipPath>
    <clipPath id="clip-path-9">
      <rect id="Rectangle_2099" data-name="Rectangle 2099" width="15.801" height="5.756" fill="none"/>
    </clipPath>
    <clipPath id="clip-path-10">
      <rect id="Rectangle_2100" data-name="Rectangle 2100" width="19.118" height="2.947" fill="none"/>
    </clipPath>
    <clipPath id="clip-path-11">
      <rect id="Rectangle_2103" data-name="Rectangle 2103" width="90.847" height="1.674" fill="none"/>
    </clipPath>
  </defs>
  <g id="admin-review-active" transform="translate(-635 -456)">
    <g id="Ellipse_180" data-name="Ellipse 180" transform="translate(635 456)" fill="#edeff8" stroke="#20285b" stroke-width="2">
      <circle cx="48" cy="48" r="48" stroke="none"/>
      <circle cx="48" cy="48" r="47" fill="none"/>
    </g>
    <g id="Group_8901" data-name="Group 8901" transform="translate(644.848 464)">
      <g id="Group_8900" data-name="Group 8900" clip-path="url(#clip-path)">
        <g id="Group_8899" data-name="Group 8899">
          <g id="Group_8898" data-name="Group 8898" clip-path="url(#clip-path)">
            <path id="Path_3584" data-name="Path 3584" d="M29.371,161.745V139.423s-.248-6.014,2.914-7.751,16.493-.806,16.493-.806v30.879Z" transform="translate(-20.566 -91.473)" fill="#364c86"/>
            <path id="Path_3585" data-name="Path 3585" d="M101.082,61.724s-.806,6.759-1.116,7.317l-.31.558-1.55,1.054s2.976,4.216,6.635,4.9,3.348-1.488,3.348-1.488l-.558-1.178.744-6.448s-6.635-3.038-7.193-4.712" transform="translate(-68.705 -43.226)" fill="#ff9d8c"/>
            <path id="Path_3586" data-name="Path 3586" d="M91.693,90.916l2.418-1.054a11.381,11.381,0,0,0,5.146,4.03c3.6,1.488,3.658.62,3.844,0a2.357,2.357,0,0,0-.062-1.3l.266-2.171,1.438.48,4.992,40.383L96.9,131.9Z" transform="translate(-64.214 -62.931)" fill="#fff"/>
            <path id="Path_3587" data-name="Path 3587" d="M131.21,91.862a32.9,32.9,0,0,1,1.674,6.717,160.155,160.155,0,0,1,1.736,18.105c.186,5.456.31,17.919.31,17.919h16.183c.186,0,1.3-6.139,1.3-6.139s-7.069-6.056-7.441-7.048c-.248-.661-.124-12.918-1.178-18.56s-2.418-6.779-5.27-8.185a61.922,61.922,0,0,0-7.317-2.811" transform="translate(-91.888 -64.332)" fill="#4f8be8"/>
            <g id="Group_8873" data-name="Group 8873" transform="translate(47.295 37.197)" style="mix-blend-mode: multiply;isolation: isolate">
              <g id="Group_8872" data-name="Group 8872">
                <g id="Group_8871" data-name="Group 8871" clip-path="url(#clip-path-3)">
                  <path id="Path_3588" data-name="Path 3588" d="M158.273,150.091a.15.15,0,0,1-.15-.15c0-.444-.079-6.742-.155-12.833s-.155-12.392-.155-12.837a.15.15,0,0,1,.3,0c0,.443.079,6.742.155,12.833s.155,12.392.155,12.837a.15.15,0,0,1-.15.15" transform="translate(-157.813 -124.121)" fill="#bdc4d7"/>
                </g>
              </g>
            </g>
            <path id="Path_3589" data-name="Path 3589" d="M51.472,205.721l-.124,8.619H70.2s.806-7.317.5-8-19.221-.62-19.221-.62" transform="translate(-35.96 -144.067)" fill="#4f8be8"/>
            <g id="Group_8876" data-name="Group 8876" transform="translate(32.896 19.229)" style="mix-blend-mode: multiply;isolation: isolate">
              <g id="Group_8875" data-name="Group 8875">
                <g id="Group_8874" data-name="Group 8874" clip-path="url(#clip-path-4)">
                  <path id="Path_3590" data-name="Path 3590" d="M113.362,70.563A9.865,9.865,0,0,0,116,71.979l.443-3.835s-4.984-2.283-6.674-3.981a10.391,10.391,0,0,0,3.595,6.4" transform="translate(-109.767 -64.163)" fill="#8e9bbb"/>
                </g>
              </g>
            </g>
            <path id="Path_3591" data-name="Path 3591" d="M118.533,16.479a13.414,13.414,0,0,1,1.55,4.96c.248,2.728,0,9.735-2.232,12.711s-6.882,2.108-8.991.31c-1.935-1.65-3.844-3.472-4.34-7.068s1.054-10.417,5.456-11.843a11.739,11.739,0,0,1,8.557.93" transform="translate(-73.134 -10.568)" fill="#ff9d8c"/>
            <path id="Path_3592" data-name="Path 3592" d="M132.019,209.263s-.219,0-.551-.009c-.078,0-.165,0-.255,0-.321-.009-.71-.018-1.1-.03l-.264-.009c-.39-.009-.722.039-1.034.021H128.8c-.066,0-.162.006-.24.009a.582.582,0,0,1-.1,0,1.456,1.456,0,0,1-.411-.162,27.877,27.877,0,0,0-6.431-.857c-2.769.012-5.254.2-5.658-.138s-.653-3.824,1.711-4.052l2.907,1.1s6.638-.788,9.072,1.007,2.365,3.117,2.365,3.117" transform="translate(-81.026 -142.889)" fill="#ff9d8c"/>
            <path id="Path_3593" data-name="Path 3593" d="M150.547,216.77c-.066,0-.162.006-.24.009a2.811,2.811,0,0,0-.255-.342,8.029,8.029,0,0,0-3.216-1.418.113.113,0,0,1-.084-.135.115.115,0,0,1,.138-.084c.956.231,2.985.821,3.56,1.789.018.027.066.12.1.18" transform="translate(-102.77 -150.425)" fill="#223a7a"/>
            <path id="Path_3594" data-name="Path 3594" d="M153.853,214.994c-.087,0-.177,0-.264-.009-.818-1.492-2.156-1.92-3.81-2.452l-.1-.032a.113.113,0,1,1,.071-.214l.1.032c1.749.561,3.156,1.012,4.006,2.676" transform="translate(-104.769 -148.662)" fill="#223a7a"/>
            <path id="Path_3595" data-name="Path 3595" d="M157.422,213.45c-.078,0-.165,0-.255,0a6.535,6.535,0,0,0-4.311-3.2.113.113,0,0,1-.093-.131.116.116,0,0,1,.131-.09,6.693,6.693,0,0,1,4.527,3.42" transform="translate(-106.98 -147.085)" fill="#223a7a"/>
            <path id="Path_3596" data-name="Path 3596" d="M99.247,13.755a5.8,5.8,0,0,0,2.325-2.48,7.06,7.06,0,0,0,.837-3.472,10.72,10.72,0,0,1,4.34.5c2.6.775,5.7,1.829,8.309.341s2.6-3.875,1.333-4.867c-1.424-1.111-4.247-.434-4.247-.434s1.085-1.054.5-1.674-2.728.186-2.728.186-2.6-2.077-7.534-1.829S95.093,3.71,94.814,7.555a21.283,21.283,0,0,0,1.116,7.689Z" transform="translate(-66.373 0)" fill="#223a7a"/>
            <g id="Group_8879" data-name="Group 8879" transform="translate(41.6 14.611)" style="mix-blend-mode: multiply;isolation: isolate">
              <g id="Group_8878" data-name="Group 8878">
                <g id="Group_8877" data-name="Group 8877" clip-path="url(#clip-path-5)">
                  <path id="Path_3597" data-name="Path 3597" d="M140.084,48.83a7.933,7.933,0,0,0-.343,2.219c-.055.569-.159,1.232.362,1.615.249.183,1.426.678.821,1.079a1.6,1.6,0,0,1-.88.1c-.181-.009-.364-.016-.544-.03s-.385-.073-.58-.074a.113.113,0,0,0-.057.209,2.448,2.448,0,0,0,1.137.27,1.716,1.716,0,0,0,.941-.166.673.673,0,0,0,.43-.482.77.77,0,0,0-.37-.664c-.234-.174-.522-.255-.759-.424-.328-.235-.3-.631-.278-1,.055-.881.258-1.748.337-2.625.012-.134-.174-.134-.216-.029" transform="translate(-138.809 -48.754)" fill="#8e9bbb"/>
                </g>
              </g>
            </g>
            <path id="Path_3598" data-name="Path 3598" d="M148.285,53.374c-.093.523-.473.892-.849.826s-.607-.544-.514-1.067.473-.892.849-.826.607.544.514,1.067" transform="translate(-102.876 -36.626)" fill="#223a7a"/>
            <path id="Path_3599" data-name="Path 3599" d="M132.214,51.849c-.084.564-.481.972-.887.912s-.668-.567-.584-1.13.481-.972.888-.912.667.566.583,1.13" transform="translate(-91.549 -35.514)" fill="#223a7a"/>
            <path id="Path_3600" data-name="Path 3600" d="M147.337,46.957c.29.049.582,0,.874.019.07.005.14.015.209.022.05,0-.093-.015-.023,0l.045.007c.037.007.073.014.109.023.062.015.122.038.185.052a.711.711,0,0,0,.177.023l.1-.013-.06.011a.58.58,0,0,0,.119-.013.323.323,0,0,0,.223-.392.375.375,0,0,0-.064-.126l-.038-.048.035.04c-.012-.017-.025-.034-.039-.051a.187.187,0,0,0-.066-.066c-.023-.018-.046-.037-.07-.053a.843.843,0,0,0-.269-.108,2.218,2.218,0,0,0-.533-.068,3.7,3.7,0,0,0-.527.042,1.015,1.015,0,0,0-.452.167.3.3,0,0,0-.14.292.288.288,0,0,0,.21.243" transform="translate(-103.033 -32.363)" fill="#223a7a"/>
            <path id="Path_3601" data-name="Path 3601" d="M130.609,45.135a1.216,1.216,0,0,0-.121-.063c-.035-.016-.131-.067-.059-.027L130.35,45a1.832,1.832,0,0,0-.375-.134,2.492,2.492,0,0,0-.871-.06,2.023,2.023,0,0,0-.86.269.548.548,0,0,0-.108.077l-.063.082.018-.027a.305.305,0,0,0-.13.253.252.252,0,0,0,.134.223.379.379,0,0,0,.3,0h-.157a.563.563,0,0,0,.233,0s.084-.021.031-.01.085-.01.1-.012.11-.012.012,0l.054-.007c.047-.006.094-.011.141-.015.2-.016.409-.025.614-.032s.384-.008.574,0l.244.009c.046,0,.026.008,0,0l.051.013c.034.01.067.02.1.033a.285.285,0,0,0,.34-.167.289.289,0,0,0-.118-.36" transform="translate(-89.612 -31.37)" fill="#223a7a"/>
            <path id="Path_3602" data-name="Path 3602" d="M136.007,71.46a2.8,2.8,0,0,1,1.4-1.261c-.52-.053-2.972-.28-3.591.072-.693.394.128,1.974,1.562,2.054a1.959,1.959,0,0,0,.418-.024,2.07,2.07,0,0,1,.21-.84" transform="translate(-93.538 -49.076)" fill="#223a7a"/>
            <path id="Path_3603" data-name="Path 3603" d="M54,90.483s-9.053,2.232-12.215,5.828-4.65,21.33-4.712,24.616,2.232,4.65,3.6,5.581,7.379,2.6,12.215,2.852,9.425,0,9.425,0a6.441,6.441,0,0,1,.729-2.6A3.208,3.208,0,0,1,64.6,125.02l-4.154-1.488s-.727-13.035-1.86-19.346A56.074,56.074,0,0,0,54,90.483" transform="translate(-25.959 -63.366)" fill="#4f8be8"/>
            <g id="Group_8882" data-name="Group 8882" transform="translate(40.474 27.866)" style="mix-blend-mode: multiply;isolation: isolate">
              <g id="Group_8881" data-name="Group 8881">
                <g id="Group_8880" data-name="Group 8880" clip-path="url(#clip-path-6)">
                  <path id="Path_3604" data-name="Path 3604" d="M137.623,123.2a.15.15,0,0,1-.137-.21,46.655,46.655,0,0,0,2.222-8.306l.041-.213a3.78,3.78,0,0,0-.036-2.405c-.19-.34-.618-1.076-1.03-1.784-.428-.735-.831-1.43-.943-1.637-.218-.4.469-1.486,1.464-2.969.269-.4.5-.747.637-.981.355-.614.119-1.176-.155-1.827l-.093-.224c-.248-.608-.53-1.218-.8-1.807-.111-.241-.223-.482-.333-.724q-.218-.481-.44-.976a57.141,57.141,0,0,0-2.942-5.924.15.15,0,1,1,.257-.153,57.372,57.372,0,0,1,2.958,5.955q.222.494.439.975.165.362.332.722c.274.592.557,1.205.807,1.82l.092.221a2.194,2.194,0,0,1,.138,2.093c-.141.243-.375.593-.647,1-.519.774-1.6,2.383-1.449,2.66.11.2.512.9.939,1.629.413.71.843,1.448,1.033,1.789a3.983,3.983,0,0,1,.068,2.608l-.041.212a49.31,49.31,0,0,1-2.242,8.372.149.149,0,0,1-.137.089" transform="translate(-135.054 -92.983)" fill="#bdc4d7"/>
                </g>
              </g>
            </g>
            <g id="Group_8885" data-name="Group 8885" transform="translate(26.546 27.37)" style="mix-blend-mode: multiply;isolation: isolate">
              <g id="Group_8884" data-name="Group 8884">
                <g id="Group_8883" data-name="Group 8883" clip-path="url(#clip-path-7)">
                  <path id="Path_3605" data-name="Path 3605" d="M96.239,122.568a.149.149,0,0,1-.106-.044,44.453,44.453,0,0,1-4.355-7.7,12.825,12.825,0,0,1,.545-3.628,11.91,11.91,0,0,0,.453-2.664c-.115-.482-.983-1.192-1.824-1.878-1.015-.829-2.065-1.687-2.268-2.459-.231-.878-.033-6.373.1-10.009.047-1.308.084-2.34.084-2.709a.15.15,0,0,1,.3,0c0,.374-.037,1.409-.084,2.72-.122,3.4-.327,9.087-.107,9.922.179.678,1.235,1.541,2.168,2.3s1.787,1.46,1.925,2.041a10.662,10.662,0,0,1-.452,2.8,13.414,13.414,0,0,0-.546,3.5,43.629,43.629,0,0,0,4.276,7.555.15.15,0,0,1-.106.256" transform="translate(-88.578 -91.328)" fill="#bdc4d7"/>
                </g>
              </g>
            </g>
            <g id="Group_8888" data-name="Group 8888" transform="translate(21.873 38.233)" style="mix-blend-mode: multiply;isolation: isolate">
              <g id="Group_8887" data-name="Group 8887">
                <g id="Group_8886" data-name="Group 8886" clip-path="url(#clip-path-8)">
                  <path id="Path_3606" data-name="Path 3606" d="M73.135,145.38h-.021a.15.15,0,0,1-.128-.169c.11-.779,1.83-16.3,1.909-17.492a.148.148,0,0,1,.159-.14.15.15,0,0,1,.14.159c-.079,1.191-1.8,16.734-1.911,17.514a.15.15,0,0,1-.148.129" transform="translate(-72.985 -127.576)" fill="#bdc4d7"/>
                </g>
              </g>
            </g>
            <g id="Group_8891" data-name="Group 8891" transform="translate(18.711 54.497)" style="mix-blend-mode: multiply;isolation: isolate">
              <g id="Group_8890" data-name="Group 8890">
                <g id="Group_8889" data-name="Group 8889" clip-path="url(#clip-path-9)">
                  <path id="Path_3607" data-name="Path 3607" d="M78.085,187.6a.157.157,0,0,1-.056-.011c-.381-.155-2.065-.723-4.2-1.442-4.3-1.451-10.2-3.438-11.317-4.021a.15.15,0,1,1,.138-.266c1.1.572,7.223,2.636,11.275,4,2.137.721,3.825,1.29,4.214,1.448a.15.15,0,0,1-.056.289" transform="translate(-62.434 -181.844)" fill="#bdc4d7"/>
                </g>
              </g>
            </g>
            <g id="Group_8894" data-name="Group 8894" transform="translate(15.487 63.488)" style="mix-blend-mode: multiply;isolation: isolate">
              <g id="Group_8893" data-name="Group 8893">
                <g id="Group_8892" data-name="Group 8892" clip-path="url(#clip-path-10)">
                  <path id="Path_3608" data-name="Path 3608" d="M68.482,214.791a57.046,57.046,0,0,1-16.706-2.655.15.15,0,0,1,.1-.283c7.046,2.493,16.9,2.918,18.736,2.506a.15.15,0,1,1,.066.293,11.957,11.957,0,0,1-2.195.139" transform="translate(-51.676 -211.844)" fill="#bdc4d7"/>
                </g>
              </g>
            </g>
            <path id="Path_3609" data-name="Path 3609" d="M221.9,148.055l-11.853,23.479-34.557.248,10.665-24.058Z" transform="translate(-122.895 -103.453)" fill="#f6f7fa"/>
            <path id="Path_3610" data-name="Path 3610" d="M98.956,170.38l.007-1.879h22.371l10.293-22.57H167.4l.9.868h-34.95l-10.7,23.562s-23.7-.043-23.7.019" transform="translate(-69.3 -102.197)" fill="#dadee8"/>
            <path id="Path_3611" data-name="Path 3611" d="M251.509,186.864c-.391,1.171-2.509,2.075-4.733,2.02s-3.709-1.05-3.319-2.221,2.509-2.075,4.733-2.02,3.71,1.05,3.319,2.221" transform="translate(-170.452 -129.305)" fill="#dadee8"/>
            <path id="Path_3612" data-name="Path 3612" d="M177.688,172.19a.152.152,0,0,1-.062-.013.15.15,0,0,1-.074-.2l10.735-23.65h35.047a.15.15,0,1,1,0,.3H188.48L177.824,172.1a.15.15,0,0,1-.136.088" transform="translate(-124.332 -103.876)" fill="#fff"/>
            <rect id="Rectangle_2101" data-name="Rectangle 2101" width="26.115" height="9.114" transform="translate(1.984 69.962)" fill="#596b9b"/>
            <rect id="Rectangle_2102" data-name="Rectangle 2102" width="64.967" height="9.114" transform="translate(27.865 69.962)" fill="#7a89af"/>
            <g id="Group_8897" data-name="Group 8897" transform="translate(1.984 69.962)" style="mix-blend-mode: multiply;isolation: isolate">
              <g id="Group_8896" data-name="Group 8896">
                <g id="Group_8895" data-name="Group 8895" clip-path="url(#clip-path-11)">
                  <path id="Path_3613" data-name="Path 3613" d="M32.736,233.449H6.62v1.674H97.467v-1.674Z" transform="translate(-6.62 -233.449)" fill="#bdc4d7"/>
                </g>
              </g>
            </g>
            <rect id="Rectangle_2104" data-name="Rectangle 2104" width="29.898" height="2.232" transform="translate(0 68.164)" fill="#6f7fa9"/>
            <rect id="Rectangle_2105" data-name="Rectangle 2105" width="64.967" height="2.232" transform="translate(29.663 68.164)" fill="#9ca6c3"/>
          </g>
        </g>
      </g>
    </g>
  </g>
</svg>
