<svg xmlns="http://www.w3.org/2000/svg" width="26" height="24" viewBox="0 0 26 24">
  <g id="basket-ico" transform="translate(-1 -2)">
    <path id="Path_4290" data-name="Path 4290" d="M9.915,21.569a.6.6,0,0,0,.69.494l.789-.132a.6.6,0,0,0,.493-.691l-.748-4.49a.6.6,0,0,0-.691-.493l-.789.132a.6.6,0,0,0-.493.691Z" fill="#071d49"/>
    <path id="Path_4291" data-name="Path 4291" d="M16.112,21.24a.6.6,0,0,0,.493.691l.789.132a.6.6,0,0,0,.691-.494l.748-4.491a.6.6,0,0,0-.493-.691l-.789-.132a.6.6,0,0,0-.69.494Z" fill="#071d49"/>
    <path id="Path_4292" data-name="Path 4292" d="M21.237,8.987H6.529l5.644-5.3a.7.7,0,0,0,.032-.99l-.41-.438a.7.7,0,0,0-.99-.032L3.827,8.779a.7.7,0,0,0-.153.208H2a1,1,0,0,0-1,1v4a1,1,0,0,0,1,1h.425L4.566,25.049A1.2,1.2,0,0,0,5.74,26H22.259a1.2,1.2,0,0,0,1.174-.951l2.141-10.057H26a1,1,0,0,0,1-1v-4a1,1,0,0,0-1-1H24.276a.7.7,0,0,0-.174-.216L16.177,2.162a.7.7,0,0,0-.986.09l-.384.461a.7.7,0,0,0,.09.987Zm-17.637,2a.6.6,0,0,0-.6.6v.8a.6.6,0,0,0,.6.6H24.4a.6.6,0,0,0,.6-.6v-.8a.6.6,0,0,0-.6-.6Zm1.05,4.849a.7.7,0,0,1,.685-.846H22.663a.7.7,0,0,1,.685.846l-1.619,7.606a.7.7,0,0,1-.685.555H6.954a.7.7,0,0,1-.685-.555Z" fill="#071d49" fill-rule="evenodd"/>
  </g>
</svg>
