<svg id="calendar-ico" xmlns="http://www.w3.org/2000/svg" width="19.909" height="20" viewBox="0 0 19.909 20">
  <path id="calendar-ico-2" data-name="calendar-ico" d="M24.86,7.579h-1.8V6.236a.944.944,0,0,0-1.886,0V7.579H14.3V6.236a.944.944,0,0,0-1.886,0V7.579h-1.8A2.761,2.761,0,0,0,7.78,10.267V22.2a3.221,3.221,0,0,0,3.3,3.135H24.388a3.221,3.221,0,0,0,3.3-3.135V10.267A2.761,2.761,0,0,0,24.86,7.579Zm-.472,15.969H11.081A1.381,1.381,0,0,1,9.666,22.2V13.326H25.8V22.2a1.381,1.381,0,0,1-1.415,1.344ZM25.8,11.53H9.666V10.267a.92.92,0,0,1,.943-.9h1.8v.488a.944.944,0,0,0,1.886,0V9.371h6.875v.488a.944.944,0,0,0,1.886,0V9.371h1.8a.92.92,0,0,1,.943.9v1.267Z" transform="translate(-7.78 -5.34)" fill="#20285b"/>
  <path id="Path_32" data-name="Path 32" d="M24.739,48.8h0a1.319,1.319,0,1,0,1.319,1.319A1.319,1.319,0,0,0,24.739,48.8Z" transform="translate(-19.702 -39.068)" fill="#20285b"/>
  <path id="Path_33" data-name="Path 33" d="M45.429,48.8h0a1.319,1.319,0,1,0,1.319,1.319A1.319,1.319,0,0,0,45.429,48.8Z" transform="translate(-35.474 -39.068)" fill="#20285b"/>
  <path id="Path_34" data-name="Path 34" d="M66.129,48.8h0a1.319,1.319,0,1,0,1.319,1.319A1.319,1.319,0,0,0,66.129,48.8Z" transform="translate(-51.254 -39.068)" fill="#20285b"/>
  <path id="Path_35" data-name="Path 35" d="M24.739,66.4h0a1.319,1.319,0,1,0,1.319,1.319A1.319,1.319,0,0,0,24.739,66.4Z" transform="translate(-19.702 -52.726)" fill="#20285b"/>
  <path id="Path_36" data-name="Path 36" d="M45.429,66.4h0a1.319,1.319,0,1,0,1.319,1.319A1.319,1.319,0,0,0,45.429,66.4Z" transform="translate(-35.474 -52.726)" fill="#20285b"/>
  <path id="Path_37" data-name="Path 37" d="M66.129,66.4h0a1.319,1.319,0,1,0,1.319,1.319A1.319,1.319,0,0,0,66.129,66.4Z" transform="translate(-51.254 -52.726)" fill="#20285b"/>
</svg>
