<svg id="check-all-ico" xmlns="http://www.w3.org/2000/svg" width="13.561" height="7.253" viewBox="0 0 13.561 7.253">
  <path id="Path_3553" data-name="Path 3553" d="M12.349,10.912a.835.835,0,1,1,1.192,1.169L9.1,17.634a.835.835,0,0,1-1.2.022L4.953,14.711a.835.835,0,1,1,1.18-1.18l2.33,2.329,3.863-4.924.022-.024Zm-1.024,5.72,1.024,1.024a.835.835,0,0,0,1.2-.022l4.442-5.553a.835.835,0,1,0-1.214-1.144l-3.865,4.924-.54-.541-1.049,1.312Z" transform="translate(-4.682 -10.647)" fill="#fff" fill-rule="evenodd"/>
</svg>
