<svg xmlns="http://www.w3.org/2000/svg" width="268.037" height="136.167" viewBox="0 0 268.037 136.167">
  <path id="coming-soon" d="M-92.781-16.851a18.175,18.175,0,0,1-2.8,9.177A16.915,16.915,0,0,1-102.778-1.5,24.488,24.488,0,0,1-113.357.684q-9.81,0-15.449-6.392t-5.64-18.047v-2.461a30.123,30.123,0,0,1,2.546-12.8,19.294,19.294,0,0,1,7.332-8.477,20.456,20.456,0,0,1,11.074-2.991q9.058,0,14.561,4.768t6.255,13.142h-11.963q-.137-4.546-2.29-6.528t-6.562-1.982a7.166,7.166,0,0,0-6.562,3.35q-2.085,3.35-2.187,10.7v3.521q0,7.964,2,11.382t6.887,3.418q4.136,0,6.323-1.948t2.324-6.187Zm47.817-7.007a29.347,29.347,0,0,1-2.7,12.886,19.956,19.956,0,0,1-7.673,8.63A21.366,21.366,0,0,1-66.667.684,21.668,21.668,0,0,1-77.947-2.239,19.923,19.923,0,0,1-85.62-10.6a28.5,28.5,0,0,1-2.888-12.476v-2.8a29.477,29.477,0,0,1,2.683-12.9,19.907,19.907,0,0,1,7.69-8.63,21.515,21.515,0,0,1,11.4-3.042,21.306,21.306,0,0,1,11.279,3.008,20.266,20.266,0,0,1,7.708,8.562,28.63,28.63,0,0,1,2.786,12.732Zm-12.2-2.085q0-7.417-2.478-11.262a7.948,7.948,0,0,0-7.092-3.845q-9.023,0-9.536,13.535l-.034,3.657q0,7.314,2.427,11.245a7.937,7.937,0,0,0,7.212,3.931,7.841,7.841,0,0,0,7.007-3.862q2.461-3.862,2.5-11.108ZM-23.02-49.766l11.108,34.624L-.837-49.766H14.954V0H2.922V-11.621L4.084-35.41-7.947,0h-7.93L-27.942-35.444l1.162,23.823V0h-12V-49.766ZM35.359,0H23.4V-49.766H35.359Zm49.9,0H73.333L55.7-30.967V0h-12V-49.766h12L73.3-18.8V-49.766H85.261Zm48.33-6.152a19.29,19.29,0,0,1-8.1,4.956A34.938,34.938,0,0,1,113.8.684q-9.775,0-15.62-5.981T91.926-21.943l-.034-4.307a29.7,29.7,0,0,1,2.6-12.834,19.289,19.289,0,0,1,7.434-8.442,21.028,21.028,0,0,1,11.194-2.957q9.3,0,14.441,4.255t6,12.7H122q-.615-4.17-2.666-5.947a8.6,8.6,0,0,0-5.811-1.777,7.828,7.828,0,0,0-6.973,3.828q-2.461,3.828-2.5,10.938v3.008q0,7.451,2.546,11.194t8.015,3.743q4.683,0,6.973-2.085v-7.725h-8.34v-8.237h20.337ZM-65.386,71.772a4.929,4.929,0,0,0-1.863-4.1,23.153,23.153,0,0,0-6.545-3.042,62.8,62.8,0,0,1-7.656-3.042q-9.673-4.751-9.673-13.057a11.708,11.708,0,0,1,2.41-7.3,15.586,15.586,0,0,1,6.819-4.922,26.536,26.536,0,0,1,9.912-1.76,23.211,23.211,0,0,1,9.622,1.914,15.234,15.234,0,0,1,6.614,5.452A14.236,14.236,0,0,1-53.389,50H-65.352a6.016,6.016,0,0,0-1.863-4.717,7.261,7.261,0,0,0-5.042-1.675,8.188,8.188,0,0,0-5.076,1.418,4.351,4.351,0,0,0-1.863,3.606A4.381,4.381,0,0,0-77.144,52.1a25.862,25.862,0,0,0,7.212,3.213,44.179,44.179,0,0,1,8.477,3.572q8.066,4.648,8.066,12.817a12.152,12.152,0,0,1-4.922,10.254q-4.922,3.726-13.5,3.726a26.786,26.786,0,0,1-10.955-2.17,16.516,16.516,0,0,1-7.383-5.947,15.5,15.5,0,0,1-2.478-8.7H-80.6q0,4,2.068,5.9t6.716,1.9a7.721,7.721,0,0,0,4.7-1.282A4.23,4.23,0,0,0-65.386,71.772Zm60.293-10.63a29.347,29.347,0,0,1-2.7,12.886,19.956,19.956,0,0,1-7.673,8.63A21.366,21.366,0,0,1-26.8,85.684a21.668,21.668,0,0,1-11.279-2.922A19.923,19.923,0,0,1-45.75,74.4a28.5,28.5,0,0,1-2.888-12.476v-2.8a29.476,29.476,0,0,1,2.683-12.9,19.907,19.907,0,0,1,7.69-8.63,21.515,21.515,0,0,1,11.4-3.042,21.306,21.306,0,0,1,11.279,3.008,20.266,20.266,0,0,1,7.708,8.562A28.63,28.63,0,0,1-5.093,58.853Zm-12.2-2.085q0-7.417-2.478-11.262a7.948,7.948,0,0,0-7.092-3.845q-9.023,0-9.536,13.535l-.034,3.657q0,7.314,2.427,11.245A7.937,7.937,0,0,0-26.8,76.318a7.841,7.841,0,0,0,7.007-3.862q2.461-3.862,2.5-11.108Zm60.532,2.085a29.347,29.347,0,0,1-2.7,12.886,19.956,19.956,0,0,1-7.673,8.63,21.366,21.366,0,0,1-11.331,3.025,21.668,21.668,0,0,1-11.279-2.922A19.923,19.923,0,0,1,2.581,74.4,28.5,28.5,0,0,1-.308,61.929v-2.8a29.476,29.476,0,0,1,2.683-12.9,19.907,19.907,0,0,1,7.69-8.63,21.515,21.515,0,0,1,11.4-3.042,21.306,21.306,0,0,1,11.279,3.008,20.266,20.266,0,0,1,7.708,8.562,28.63,28.63,0,0,1,2.786,12.732Zm-12.2-2.085q0-7.417-2.478-11.262a7.948,7.948,0,0,0-7.092-3.845q-9.023,0-9.536,13.535l-.034,3.657q0,7.314,2.427,11.245a7.937,7.937,0,0,0,7.212,3.931,7.841,7.841,0,0,0,7.007-3.862q2.461-3.862,2.5-11.108ZM90.986,85H79.058L61.421,54.033V85h-12V35.234h12L79.023,66.2V35.234H90.986Z" transform="translate(134.446 50.483)" fill="#20285b" opacity="0.5"/>
</svg>
