<svg xmlns="http://www.w3.org/2000/svg" width="40" height="40" viewBox="0 0 40 40">
  <g id="cross-ico" transform="translate(-1216 -80)">
    <rect id="Rectangle_2047" data-name="Rectangle 2047" width="40" height="40" transform="translate(1216 80)" fill="#fff" opacity="0.29"/>
    <path id="Union_93" data-name="Union 93" d="M7.165,15.872v-6.7L.871,8.906A.926.926,0,0,1,0,8.035a.754.754,0,0,1,.8-.8L7.165,7.5V.835a.836.836,0,0,1,1.671,0v6.74l7,.3a.927.927,0,0,1,.87.87.754.754,0,0,1-.8.8l-7.071-.3v6.629a.836.836,0,0,1-1.671,0Z" transform="translate(1235.813 88) rotate(45)" fill="#20285b"/>
  </g>
</svg>
