<svg xmlns="http://www.w3.org/2000/svg" width="18" height="18" viewBox="0 0 18 18">
  <path id="dashboard-apps-ico" d="M16,5a1,1,0,0,1,1-1h2a1,1,0,0,1,1,1V9a1,1,0,0,1-1,1H17a1,1,0,0,1-1-1ZM4,15a1,1,0,0,1,1-1H7a1,1,0,0,1,1,1v4a1,1,0,0,1-1,1H5a1,1,0,0,1-1-1ZM4,5A1,1,0,0,1,5,4h6a1,1,0,0,1,1,1V9a1,1,0,0,1-1,1H5A1,1,0,0,1,4,9Zm8,10a1,1,0,0,1,1-1h6a1,1,0,0,1,1,1v4a1,1,0,0,1-1,1H13a1,1,0,0,1-1-1Z" transform="translate(-3 -3)" fill="none" stroke="#fff" stroke-linecap="round" stroke-linejoin="round" stroke-width="2"/>
</svg>
