<svg xmlns="http://www.w3.org/2000/svg" width="13" height="13" viewBox="0 0 13 13">
  <g id="date-pick-ico" transform="translate(-2 -292.65)">
    <path id="rect1516" d="M5.25,292.65a.65.65,0,0,0-.65.65v1.3H3.95A1.96,1.96,0,0,0,2,296.55v7.15a1.96,1.96,0,0,0,1.95,1.95h9.1A1.96,1.96,0,0,0,15,303.7v-7.15a1.96,1.96,0,0,0-1.95-1.95H12.4v-1.3a.65.65,0,0,0-1.3,0v1.3H5.9v-1.3A.65.65,0,0,0,5.25,292.65Zm-1.3,3.25h9.1a.635.635,0,0,1,.65.65v1.3H3.3v-1.3A.635.635,0,0,1,3.95,295.9Zm-.65,3.25H13.7v4.55a.635.635,0,0,1-.65.65H3.95a.635.635,0,0,1-.65-.65Z"/>
  </g>
</svg>
