<svg id="eye-ico" xmlns="http://www.w3.org/2000/svg" width="17.069" height="12.802" viewBox="0 0 17.069 12.802">
  <path id="Path_4312" data-name="Path 4312" d="M16.89,17.808C14.878,14.791,12.474,12,8.534,12S2.191,14.791.179,17.808a1.068,1.068,0,0,0,0,1.184C2.191,22.009,4.6,24.8,8.534,24.8s6.344-2.792,8.355-5.809a1.068,1.068,0,0,0,0-1.184ZM8.534,22.667C6.27,22.667,4.5,21.46,2.358,18.4,4.5,15.34,6.27,14.133,8.534,14.133S12.565,15.34,14.71,18.4C12.565,21.46,10.8,22.667,8.534,22.667Z" transform="translate(0 -11.999)" fill="#838ea4"/>
  <path id="Path_4313" data-name="Path 4313" d="M38.134,36a2.134,2.134,0,1,0,2.134,2.134A2.134,2.134,0,0,0,38.134,36Z" transform="translate(-29.599 -31.733)" fill="#838ea4"/>
</svg>
