<svg xmlns="http://www.w3.org/2000/svg" width="23.286" height="23.286" viewBox="0 0 23.286 23.286">
  <g id="flag-yellow" transform="translate(-897.964 -85.25)">
    <path id="Icon_awesome-share-alt-square" data-name="Icon awesome-share-alt-square" d="M21.786,4.584V21.7a2.334,2.334,0,0,1-2.334,2.334H2.334A2.334,2.334,0,0,1,0,21.7V4.584A2.334,2.334,0,0,1,2.334,2.25H19.452A2.334,2.334,0,0,1,21.786,4.584Z" transform="translate(898.714 83.75)" fill="none" stroke="#fa0" stroke-miterlimit="10" stroke-width="1.5"/>
    <path id="_7122467_flag_icon" data-name="7122467_flag_icon" d="M3,5.625A2.625,2.625,0,0,1,5.625,3h8.749a.875.875,0,0,1,.7,1.4L12.843,7.375l2.231,2.975a.875.875,0,0,1-.7,1.4H5.625a.875.875,0,0,0-.875.875v2.625a.875.875,0,0,1-1.75,0Z" transform="translate(900.818 88.032)" fill="#fa0" fill-rule="evenodd"/>
  </g>
</svg>
