<svg xmlns="http://www.w3.org/2000/svg" width="14.625" height="21.94" viewBox="0 0 14.625 21.94">
  <g id="lightning-ico" transform="translate(-1.321 -288.799)">
    <path id="path7641" d="M7.833.266a.731.731,0,0,0-.561.367L1.422,10.865a.731.731,0,0,0,.637,1.1H5.335L1.384,21.177a.731.731,0,0,0,1.194.805L15.734,8.819a.731.731,0,0,0-.518-1.247H12.124l3.718-6.2A.731.731,0,0,0,15.215.266H7.909a.731.731,0,0,0-.076,0Zm.5,1.456h5.6L10.2,7.929a.731.731,0,0,0,.625,1.107h2.623L4.222,18.264l2.893-6.747A.731.731,0,0,0,6.447,10.5H3.316Z" transform="translate(0 288.533)" fill="#fff"/>
  </g>
</svg>
