<svg xmlns="http://www.w3.org/2000/svg" width="16.5" height="16.5" viewBox="0 0 16.5 16.5">
  <path id="like-icon" d="M348.732,1310.5H335.768a1.77,1.77,0,0,1-1.768-1.768v-12.964a1.77,1.77,0,0,1,1.768-1.768h12.964a1.77,1.77,0,0,1,1.768,1.768v12.964A1.77,1.77,0,0,1,348.732,1310.5Zm-5.522-14.031c-.435,0-.635.841-.732,1.246a2.625,2.625,0,0,1-.55,1.275,7.49,7.49,0,0,0-.857,1.1,8.686,8.686,0,0,1-1.069,1.346.258.258,0,0,0-.077.184v4.62a.261.261,0,0,0,.255.259,3.349,3.349,0,0,1,1.138.349,6.209,6.209,0,0,0,2.583.686h.062c.9,0,2.011,0,2.458-.643a1.15,1.15,0,0,0,.133-.965,1.709,1.709,0,0,0,.354-1.615,1.811,1.811,0,0,0,.2-1.716,1.567,1.567,0,0,0,.423-1.066,1.294,1.294,0,0,0-1.287-1.255h-2.2a3.088,3.088,0,0,1,.292-.665,2.8,2.8,0,0,0,.427-1.378C344.766,1296.7,343.791,1296.469,343.21,1296.469Zm-6.223,4.839a.519.519,0,0,0-.518.519v5.186a.519.519,0,0,0,.518.518h1.729a.519.519,0,0,0,.518-.518v-5.186a.519.519,0,0,0-.518-.519Zm.864,5.359a.518.518,0,1,1,.518-.518A.519.519,0,0,1,337.851,1306.667Z" transform="translate(-334 -1294)" fill="#6579fb"/>
</svg>
