<svg xmlns="http://www.w3.org/2000/svg" width="16.655" height="20" viewBox="0 0 16.655 20">
  <g id="notification-ico" transform="translate(0 -5)">
    <path id="download" d="M18.772,2.027a2.5,2.5,0,0,0-2.916,2.466v.569a5.833,5.833,0,0,0-3.333,5.264v1.931a1.654,1.654,0,0,1-.431,1.117l-1.5,1.667a2.166,2.166,0,0,0,1.606,3.618h2.829a3.333,3.333,0,1,0,6.666,0h2.829a2.166,2.166,0,0,0,1.606-3.621l-1.5-1.667a1.654,1.654,0,0,1-.431-1.114V10.535a6.087,6.087,0,0,0-3.333-5.456v-.5A2.569,2.569,0,0,0,18.772,2.027Zm-.417,18.3a1.667,1.667,0,0,1-1.667-1.667h3.333A1.667,1.667,0,0,1,18.355,20.326Zm4.166-9.791v1.723a3.333,3.333,0,0,0,.861,2.235l1.506,1.666a.5.5,0,0,1-.371.833H12.193a.5.5,0,0,1-.371-.833l1.506-1.667a3.333,3.333,0,0,0,.86-2.235V10.326A4.166,4.166,0,0,1,16.966,6.4a.833.833,0,0,0,.556-.785V4.494a.833.833,0,0,1,.833-.833.862.862,0,0,1,.146.012.9.9,0,0,1,.687.91V5.625a.833.833,0,0,0,.544.781A4.443,4.443,0,0,1,22.522,10.535Z" transform="translate(-10.029 3.008)" fill="#071d49"/>
  </g>
</svg>
