<svg xmlns="http://www.w3.org/2000/svg" width="12.267" height="15.333" viewBox="0 0 12.267 15.333">
  <g id="password-ico" transform="translate(-4 -332.65)">
    <path id="rect1873" d="M10.133,332.65A3.842,3.842,0,0,0,6.3,336.483v2.3A2.269,2.269,0,0,0,4,340.955v4.856a2.186,2.186,0,0,0,2.173,2.173h7.921a2.186,2.186,0,0,0,2.173-2.173v-4.856a2.165,2.165,0,0,0-2.3-2.171v-2.3A3.842,3.842,0,0,0,10.133,332.65Zm0,1.533a2.278,2.278,0,0,1,2.3,2.3v2.3h-4.6v-2.3A2.278,2.278,0,0,1,10.133,334.183Zm-3.961,6.133h7.921a.621.621,0,0,1,.639.638v4.856a.622.622,0,0,1-.639.639H6.173a.622.622,0,0,1-.639-.639v-4.856A.621.621,0,0,1,6.173,340.317Z" fill="#838ea4"/>
  </g>
</svg>
