<svg xmlns="http://www.w3.org/2000/svg" width="16" height="15.529" viewBox="0 0 16 15.529">
  <path id="print-ico" d="M27.706,20.371A2.842,2.842,0,0,0,24.882,17.5H21.118a2.832,2.832,0,0,0-2.824,2.824v.047A3.8,3.8,0,0,0,15,24.088v3.765a2.832,2.832,0,0,0,2.824,2.824h.471v.471a1.888,1.888,0,0,0,1.882,1.882h5.647a1.888,1.888,0,0,0,1.882-1.882v-.471h.471A2.832,2.832,0,0,0,31,27.853V24.088A3.765,3.765,0,0,0,27.706,20.371Zm-6.588-.988h3.765a.941.941,0,0,1,.941.941H20.176A.941.941,0,0,1,21.118,19.382Zm4.706,11.765H20.176V27.382h5.647Zm3.294-3.294a.941.941,0,0,1-.941.941h-.471V27.382A1.888,1.888,0,0,0,25.824,25.5H20.176a1.888,1.888,0,0,0-1.882,1.882v1.412h-.471a.941.941,0,0,1-.941-.941V24.088a1.888,1.888,0,0,1,1.882-1.882h8.471a1.888,1.888,0,0,1,1.882,1.882Z" transform="translate(-15 -17.5)" fill="#07f"/>
</svg>
