<svg xmlns="http://www.w3.org/2000/svg" width="21.674" height="13.699" viewBox="0 0 21.674 13.699">
  <path id="replied-ico" d="M19.161,23.3a10.563,10.563,0,0,0-7-2.829V17.943a1,1,0,0,0-1.7-.66L4.637,23.177a.932.932,0,0,0,0,1.32l5.8,5.894a1.018,1.018,0,0,0,1.085.212,1,1,0,0,0,.637-.872V27.185c1.886-.047,6.319.141,7.922,3.018a.894.894,0,0,0,.8.472.884.884,0,0,0,.236-.024.956.956,0,0,0,.731-.92A9.89,9.89,0,0,0,19.161,23.3ZM11.05,25.346a.889.889,0,0,0-.778.943v1.132L6.735,23.837l3.537-3.584v1.132a.907.907,0,0,0,.9.943c5.069,0,7.215,2.428,8.134,4.5-3.324-1.981-7.993-1.509-8.252-1.485ZM7.561,29.072a.984.984,0,0,1,0,1.344.931.931,0,0,1-.66.283.892.892,0,0,1-.66-.283L.44,24.521a.954.954,0,0,1,0-1.32l5.8-5.894a.912.912,0,0,1,1.32,0,.939.939,0,0,1,0,1.344L2.4,23.837Z" transform="translate(-0.175 -17)" fill="#fff"/>
</svg>
