<svg xmlns="http://www.w3.org/2000/svg" xmlns:xlink="http://www.w3.org/1999/xlink" width="104" height="96" viewBox="0 0 104 96">
  <defs>
    <clipPath id="clip-path">
      <rect id="Rectangle_2084" data-name="Rectangle 2084" width="7.237" height="1.789" fill="none"/>
    </clipPath>
    <clipPath id="clip-path-2">
      <rect id="Rectangle_2088" data-name="Rectangle 2088" width="12.096" height="19.264" fill="none"/>
    </clipPath>
    <clipPath id="clip-path-3">
      <rect id="Rectangle_2089" data-name="Rectangle 2089" width="58.363" height="71.371" fill="none"/>
    </clipPath>
  </defs>
  <g id="request-submitted" transform="translate(-416 -456)">
    <circle id="Ellipse_179" data-name="Ellipse 179" cx="48" cy="48" r="48" transform="translate(416 456)" fill="#edeff8"/>
    <g id="Group_8870" data-name="Group 8870" transform="translate(435 472)" opacity="0.5">
      <g id="Group_8902" data-name="Group 8902">
        <g id="Group_8868" data-name="Group 8868">
          <g id="Group_8903" data-name="Group 8903">
            <path id="Path_3570" data-name="Path 3570" d="M91.966,49.987H86.518a.895.895,0,1,1,0-1.789h5.448a.895.895,0,1,1,0,1.789" transform="translate(-53.597 -30.17)" fill="#407bff"/>
            <g id="Group_8857" data-name="Group 8857" transform="translate(32.026 18.028)" opacity="0.7">
              <g id="Group_8856" data-name="Group 8856">
                <g id="Group_8855" data-name="Group 8855" clip-path="url(#clip-path)">
                  <path id="Path_3571" data-name="Path 3571" d="M91.966,49.987H86.518a.895.895,0,1,1,0-1.789h5.448a.895.895,0,1,1,0,1.789" transform="translate(-85.623 -48.198)" fill="#fff"/>
                </g>
              </g>
            </g>
            <path id="Path_3572" data-name="Path 3572" d="M58.363,47.891,37.471,86.341a1.02,1.02,0,0,1-1.384.41L.533,67.433a1.02,1.02,0,0,1-.409-1.384L27.3,16.036a1.02,1.02,0,0,1,1.384-.409L52.638,28.643Z" transform="translate(0 -9.704)" fill="#407bff"/>
            <path id="Path_3573" data-name="Path 3573" d="M58.363,47.891,37.471,86.341a1.02,1.02,0,0,1-1.384.41L.533,67.433a1.02,1.02,0,0,1-.409-1.384L27.3,16.036a1.02,1.02,0,0,1,1.384-.409L52.638,28.643Z" transform="translate(0 -9.704)" fill="#4f8be8"/>
            <rect id="Rectangle_2085" data-name="Rectangle 2085" width="1.871" height="30.169" transform="translate(19.201 34.138) rotate(-61.654)" fill="#407bff"/>
            <rect id="Rectangle_2086" data-name="Rectangle 2086" width="1.871" height="30.169" transform="translate(15.573 40.863) rotate(-61.654)" fill="#407bff"/>
            <rect id="Rectangle_2087" data-name="Rectangle 2087" width="1.871" height="30.169" transform="translate(11.944 47.589) rotate(-61.654)" fill="#407bff"/>
            <path id="Path_3574" data-name="Path 3574" d="M130.066,50.589l-6.3,11.6a1.02,1.02,0,0,0,.41,1.384l11.562,6.282Z" transform="translate(-77.394 -31.667)" fill="#407bff"/>
            <g id="Group_8860" data-name="Group 8860" transform="translate(46.246 18.922)" opacity="0.7">
              <g id="Group_8859" data-name="Group 8859">
                <g id="Group_8858" data-name="Group 8858" clip-path="url(#clip-path-2)">
                  <path id="Path_3575" data-name="Path 3575" d="M130.066,50.589l-6.3,11.6a1.02,1.02,0,0,0,.41,1.384l11.562,6.282Z" transform="translate(-123.641 -50.589)" fill="#fff"/>
                </g>
              </g>
            </g>
            <path id="Path_3576" data-name="Path 3576" d="M72.929,44.434,52.037,82.884a1.02,1.02,0,0,1-1.384.41L15.1,63.976a1.02,1.02,0,0,1-.409-1.384L41.864,12.58a1.02,1.02,0,0,1,1.384-.409L67.2,25.186Z" transform="translate(-9.118 -7.54)" fill="#407bff"/>
            <g id="Group_8863" data-name="Group 8863" transform="translate(5.448 4.506)" opacity="0.5">
              <g id="Group_8862" data-name="Group 8862">
                <g id="Group_8861" data-name="Group 8861" clip-path="url(#clip-path-3)">
                  <path id="Path_3577" data-name="Path 3577" d="M72.929,44.434,52.037,82.884a1.02,1.02,0,0,1-1.384.41L15.1,63.976a1.02,1.02,0,0,1-.409-1.384L41.864,12.58a1.02,1.02,0,0,1,1.384-.409L67.2,25.186Z" transform="translate(-14.566 -12.047)" fill="#fff"/>
                </g>
              </g>
            </g>
            <path id="Path_3578" data-name="Path 3578" d="M93.109,97.829,67.975,84.269a.805.805,0,0,0-1.091.326l-.124.23a.805.805,0,0,0,.326,1.091L92.221,99.475a.805.805,0,0,0,1.091-.327l.124-.23a.8.8,0,0,0-.326-1.091" transform="translate(-41.729 -52.689)" fill="#4f8be8"/>
            <path id="Path_3579" data-name="Path 3579" d="M83.408,115.81,58.274,102.251a.805.805,0,0,0-1.091.326l-.124.23a.805.805,0,0,0,.326,1.091L82.52,117.457a.8.8,0,0,0,1.091-.327l.124-.23a.8.8,0,0,0-.326-1.091" transform="translate(-35.656 -63.945)" fill="#4f8be8"/>
            <path id="Path_3580" data-name="Path 3580" d="M73.708,133.793,48.574,120.233a.805.805,0,0,0-1.091.326l-.124.23a.805.805,0,0,0,.326,1.091L72.82,135.439a.805.805,0,0,0,1.091-.327l.124-.23a.8.8,0,0,0-.326-1.091" transform="translate(-29.585 -75.201)" fill="#4f8be8"/>
            <path id="Path_3581" data-name="Path 3581" d="M144.632,47.133l-6.3,11.6a1.02,1.02,0,0,0,.41,1.384L150.3,66.4Z" transform="translate(-86.512 -29.504)" fill="#407bff"/>
            <g id="Group_8866" data-name="Group 8866" transform="translate(51.695 17.629)" opacity="0.7">
              <g id="Group_8865" data-name="Group 8865">
                <g id="Group_8864" data-name="Group 8864" clip-path="url(#clip-path-2)">
                  <path id="Path_3582" data-name="Path 3582" d="M144.632,47.133l-6.3,11.6a1.02,1.02,0,0,0,.41,1.384L150.3,66.4Z" transform="translate(-138.207 -47.133)" fill="#fff"/>
                </g>
              </g>
            </g>
            <path id="Path_3583" data-name="Path 3583" d="M119.1,0l1.756,7.806c-6.659,1.829-12.63,8.417-16.93,14.643a36,36,0,0,0-4.2,8.331s13.426-12.143,20.827-12.856l-.352,12.9s7.676-14.951,22.584-20.424c0,0-12.488-8.991-23.68-10.4" transform="translate(-57.779 -6.828)" fill="#4f8be8"/>
          </g>
        </g>
      </g>
    </g>
  </g>
</svg>
