<svg xmlns="http://www.w3.org/2000/svg" width="14.491" height="16" viewBox="0 0 14.491 16">
  <path id="share-ico" d="M16.569,14.431a2.2,2.2,0,0,0-1.574.6L9.222,11.7a2.7,2.7,0,0,0,.081-.563,2.7,2.7,0,0,0-.081-.563l5.692-3.3a2.415,2.415,0,1,0-.767-1.769,2.687,2.687,0,0,0,.081.563l-5.691,3.3a2.43,2.43,0,0,0-1.655-.643A2.39,2.39,0,0,0,4.5,11.134,2.43,2.43,0,0,0,8.577,12.9l5.732,3.337a2.017,2.017,0,0,0-.081.523,2.341,2.341,0,1,0,2.341-2.332Z" transform="translate(-4.5 -3.094)" fill="#0056b8"/>
</svg>
