<svg xmlns="http://www.w3.org/2000/svg" width="24" height="21.877" viewBox="0 0 24 21.877">
  <g id="status-pending-ico" transform="translate(-5671.903 -3595.034)">
    <g id="Path_4252" data-name="Path 4252" transform="translate(5669 3591)" fill="none">
      <path d="M11.6,5.948a3.81,3.81,0,0,1,6.609,0L26.391,20.2a3.81,3.81,0,0,1-3.3,5.707H6.719a3.81,3.81,0,0,1-3.3-5.707Z" stroke="none"/>
      <path d="M 14.90270709991455 5.534259796142578 C 14.06510734558105 5.534259796142578 13.31607627868652 5.967939376831055 12.89905738830566 6.694360733032227 L 4.714967727661133 20.95051002502441 C 4.299726486206055 21.6738395690918 4.30131721496582 22.53660011291504 4.719226837158203 23.25839042663574 C 5.137136459350586 23.98017883300781 5.884576797485352 24.41110038757324 6.718616485595703 24.41110038757324 L 23.0867977142334 24.41110038757324 C 23.92083740234375 24.41110038757324 24.66827774047852 23.98017883300781 25.0861873626709 23.25839042663574 C 25.50409698486328 22.53660011291504 25.50568771362305 21.6738395690918 25.09044647216797 20.95051002502441 L 16.90635681152344 6.694360733032227 C 16.48933792114258 5.967939376831055 15.74030685424805 5.534259796142578 14.90270709991455 5.534259796142578 M 14.90270709991455 4.034265518188477 C 16.18884658813477 4.034265518188477 17.4749870300293 4.672029495239258 18.20723724365234 5.947559356689453 L 26.39132690429688 20.20370864868164 C 27.8495979309082 22.74393081665039 26.01583671569824 25.91110038757324 23.0867977142334 25.91110038757324 L 6.718616485595703 25.91110038757324 C 3.789587020874023 25.91110038757324 1.955816268920898 22.74393081665039 3.414087295532227 20.20370864868164 L 11.59817695617676 5.947559356689453 C 12.3304271697998 4.672029495239258 13.61656761169434 4.034265518188477 14.90270709991455 4.034265518188477 Z" stroke="none" fill="#e5686a"/>
    </g>
    <path id="Path_25" data-name="Path 25" d="M.942,7.073A.942.942,0,0,1,0,6.13V.942a.942.942,0,0,1,1.885,0V6.13A.942.942,0,0,1,.942,7.073Z" transform="translate(5684.845 3612.604) rotate(180)" fill="#e5686a"/>
    <circle id="Ellipse_2" data-name="Ellipse 2" cx="1.131" cy="1.131" r="1.131" transform="translate(5685.033 3604.465) rotate(180)" fill="#e5686a"/>
  </g>
</svg>
