<svg xmlns="http://www.w3.org/2000/svg" width="18.823" height="15.882" viewBox="0 0 18.823 15.882">
  <g id="team-settings-ico" transform="translate(-0.5 -3.382)">
    <path id="Path_4258" data-name="Path 4258" d="M13.735,27.088V25.559A3.059,3.059,0,0,0,10.676,22.5H4.559A3.059,3.059,0,0,0,1.5,25.559v1.529" transform="translate(0 -8.824)" fill="none" stroke="#fff" stroke-linecap="round" stroke-linejoin="round" stroke-width="2"/>
    <path id="Path_4259" data-name="Path 4259" d="M13.617,7.559A3.059,3.059,0,1,1,10.559,4.5,3.059,3.059,0,0,1,13.617,7.559Z" transform="translate(-2.941)" fill="none" stroke="#fff" stroke-linecap="round" stroke-linejoin="round" stroke-width="2"/>
    <path id="Path_4260" data-name="Path 4260" d="M32.294,27.184V25.654A3.059,3.059,0,0,0,30,22.7" transform="translate(-13.971 -8.92)" fill="none" stroke="#fff" stroke-linecap="round" stroke-linejoin="round" stroke-width="2"/>
    <path id="Path_4261" data-name="Path 4261" d="M24,4.7a3.059,3.059,0,0,1,0,5.926" transform="translate(-11.03 -0.096)" fill="none" stroke="#fff" stroke-linecap="round" stroke-linejoin="round" stroke-width="2"/>
  </g>
</svg>
