<svg xmlns="http://www.w3.org/2000/svg" width="15" height="15.001" viewBox="0 0 15 15.001">
  <g id="tick-green" transform="translate(0 0.001)">
    <path id="Subtraction_2" data-name="Subtraction 2" d="M-6461.5-4738a7.509,7.509,0,0,1-7.5-7.5,7.509,7.509,0,0,1,7.5-7.5,7.519,7.519,0,0,1,7.5,7.5A7.508,7.508,0,0,1-6461.5-4738Zm-2.345-8.437a.938.938,0,0,0-.6.217.93.93,0,0,0-.333.635.927.927,0,0,0,.213.683l1.562,1.875a.93.93,0,0,0,.719.337.94.94,0,0,0,.721-.336l3.125-3.75a.93.93,0,0,0,.213-.685.931.931,0,0,0-.333-.635.942.942,0,0,0-.6-.218.935.935,0,0,0-.719.336l-2.406,2.887-.842-1.01A.935.935,0,0,0-6463.844-4746.437Z" transform="translate(6469 4753)" fill="#009500"/>
  </g>
</svg>
