<svg id="tick-grey" xmlns="http://www.w3.org/2000/svg" width="15" height="15" viewBox="0 0 15 15">
  <path id="Path_4307" data-name="Path 4307" d="M31.909,30.338,29.5,33.224l-.842-1.01a.937.937,0,1,0-1.439,1.2l1.562,1.875a.936.936,0,0,0,1.439,0l3.126-3.75a.937.937,0,1,0-1.439-1.2Z" transform="translate(-22.785 -25.313)" fill="#838ea4"/>
  <path id="Path_4308" data-name="Path 4308" d="M7.5,0A7.5,7.5,0,1,0,15,7.5,7.5,7.5,0,0,0,7.5,0Zm0,13.125A5.625,5.625,0,1,1,13.125,7.5,5.625,5.625,0,0,1,7.5,13.125Z" fill="#838ea4"/>
</svg>
