<svg xmlns="http://www.w3.org/2000/svg" width="24" height="23" viewBox="0 0 24 23">
  <g id="tooltip-ico" transform="translate(-868 -155)">
    <g id="Group_9219" data-name="Group 9219" transform="translate(-17)">
      <path id="_8725686_comment_alt_notes_icon" data-name="8725686_comment_alt_notes_icon" d="M7,7A1,1,0,1,0,8,8,1,1,0,0,0,7,7Zm0,4a1,1,0,1,0,1,1A1,1,0,0,0,7,11Zm10,0H11a1,1,0,0,0,0,2h6a1,1,0,0,0,0-2Zm0-4H11a1,1,0,0,0,0,2h6a1,1,0,0,0,0-2Zm2-5H5A3,3,0,0,0,2,5V15a3,3,0,0,0,3,3H16.59l3.7,3.71A1,1,0,0,0,21,22a.84.84,0,0,0,.38-.08A1,1,0,0,0,22,21V5A3,3,0,0,0,19,2Zm1,16.59-2.29-2.3A1,1,0,0,0,17,16H5a1,1,0,0,1-1-1V5A1,1,0,0,1,5,4H19a1,1,0,0,1,1,1Z" transform="translate(883 156)" fill="#20285b"/>
    </g>
    <circle id="Ellipse_233" data-name="Ellipse 233" cx="4" cy="4" r="4" transform="translate(883 156)" fill="#ec2531" stroke="#eefafc" stroke-width="2"/>
  </g>
</svg>
