<svg xmlns="http://www.w3.org/2000/svg" width="13.239" height="12.487" viewBox="0 0 13.239 12.487">
  <g id="warning-ico" transform="translate(-52.961 -65.15)">
    <path id="Path_4293" data-name="Path 4293" d="M54.525,77.037H64.636a.949.949,0,0,0,.836-1.4l-5.055-9.388a.949.949,0,0,0-1.672,0l-5.055,9.388a.949.949,0,0,0,.836,1.4Z" fill="rgba(0,0,0,0)" stroke="#ec2531" stroke-linecap="round" stroke-linejoin="round" stroke-width="1.2"/>
    <path id="Path_4294" data-name="Path 4294" d="M250.256,189.616l.17,3.619.17-3.617a.17.17,0,0,0-.172-.178h0a.17.17,0,0,0-.168.177Z" transform="translate(-190.846 -120.021)" fill="rgba(0,0,0,0)" stroke="#ec2531" stroke-linecap="round" stroke-linejoin="round" stroke-width="1.2"/>
    <path id="Path_4295" data-name="Path 4295" d="M236.593,358.437a.593.593,0,1,1,.593-.593A.593.593,0,0,1,236.593,358.437Z" transform="translate(-177.013 -282.853)" fill="#ec2531"/>
  </g>
</svg>
